# File produced by Open Asset Import Library (http://www.assimp.sf.net)
# (assimp v3.1.151580502)

mtllib can_triangled.mtl

# 527 vertex positions
v  -0.00837832 0.0419406 -0.0351
v  -0.0100835 0.0414148 -0.0348697
v  -0.0106923 0.0433702 -0.0312217
v  -0.00902999 0.0440233 -0.0311058
v  -0.01022 0.0185481 0.0364542
v  -0.010436 -0.0492938 0.0364541
v  -0.00874174 -0.049435 0.036965
v  -0.00851449 0.0186894 0.0369457
v  -0.0135472 0.0418372 -0.0238144
v  -0.0120142 0.0433702 -0.0238144
v  -0.0122466 0.0419312 -0.0308716
v  -0.0135405 -0.049297 0.0243456
v  -0.0135463 0.0181952 0.0238807
v  -0.0135463 0.0181597 0.0187313
v  -0.013541 -0.049305 0.0190177
v  -0.00064248 0.0419406 -0.0351
v  -0.00034248 0.0414622 -0.0346524
v  -0.00034248 0.0386983 -0.0364262
v  -0.00064248 0.0388767 -0.036965
v  0.00982877 0.0176141 -0.036413
v  0.00813312 0.0176101 -0.0369517
v  0.00808815 0.0388767 -0.036965
v  0.00981911 0.0386771 -0.0364262
v  -0.0135464 0.0178667 -0.0238184
v  -0.0135464 0.0179754 -0.00802766
v  -0.0135472 0.0301204 -0.00831766
v  -0.0135472 0.0316198 -0.0115087
v  0.00064248 0.0419406 -0.0351
v  0.00064248 0.0388767 -0.036965
v  0.00034248 0.0386983 -0.0364262
v  0.00034248 0.0414622 -0.0346524
v  -0.0103771 0.0439635 -0.0235551
v  0.0114576 0.0176156 -0.0351922
v  0.0114578 0.0382903 -0.0352054
v  -0.0135472 0.0408658 -0.0215977
v  -0.0120478 0.0421557 -0.020786
v  -0.00034248 0.0433817 -0.0309513
v  -0.00064248 0.0440233 -0.0311058
v  -0.0120478 0.0328796 -0.0106642
v  -0.0120478 0.0316197 -0.00798295
v  -0.0103693 0.0426153 -0.0204881
v  0.0135463 0.0181597 0.0187313
v  0.0135463 0.0181952 0.0238807
v  0.0135405 -0.049297 0.0243456
v  0.013541 -0.049305 0.0190177
v  -0.00064248 0.0186894 0.0369457
v  -0.00064248 -0.049435 0.036965
v  -0.00034248 -0.049301 0.0363114
v  -0.00034248 0.0185409 0.0362985
v  0.00034248 0.0433817 -0.0309513
v  0.00064248 0.0440233 -0.0311058
v  0.00064248 0.0186894 0.0369457
v  0.00034248 0.0185409 0.0362985
v  0.00034248 -0.049301 0.0363114
v  0.00064248 -0.049435 0.036965
v  0.013543 -0.0493432 -0.00642024
v  0.0135464 0.0179754 -0.00802766
v  -0.0103829 0.0333697 -0.0103538
v  -0.0127176 -0.0491406 0.0302191
v  -0.0125445 0.0182393 0.0302709
v  -0.010388 0.0322464 -0.00784305
v  0.0100835 0.0414148 -0.0348697
v  0.00837832 0.0419406 -0.0351
v  0.0125445 0.0182393 0.0302709
v  0.0127176 -0.0491406 0.0302191
v  0.0122466 0.0419312 -0.0308716
v  0.0135472 0.0418372 -0.0238144
v  0.0135464 0.0178667 -0.0238184
v  0.0123417 0.0177224 -0.0303546
v  -0.0135472 0.0301204 0.0186806
v  0.0116959 0.0403225 -0.0338597
v  -0.00034248 0.0433122 -0.0236946
v  -0.00064248 0.0439635 -0.0235551
v  0.00034248 0.0433122 -0.0236946
v  0.00064248 0.0439635 -0.0235551
v  -0.012039 -0.0490117 0.0350618
v  -0.0118368 0.0182338 0.035072
v  0.0118368 0.0182338 0.035072
v  0.012039 -0.0490117 0.0350618
v  0.0106923 0.0433702 -0.0312217
v  0.00902999 0.0440233 -0.0311058
v  0.01022 0.0185481 0.0364542
v  0.00851449 0.0186894 0.0369457
v  0.00874174 -0.049435 0.036965
v  0.010436 -0.0492938 0.0364541
v  -0.00034248 0.0420551 -0.0208566
v  -0.00064248 0.0426153 -0.0204881
v  0.00034248 0.0420551 -0.0208566
v  0.00064248 0.0426153 -0.0204881
v  -0.0103759 0.0322245 0.0191813
v  -0.0120478 0.0316197 0.0190418
v  -0.00034248 0.0328068 -0.0107204
v  -0.00064248 0.0333697 -0.0103538
v  0.0135472 0.0301204 -0.00831766
v  0.0135472 0.0316198 -0.0115087
v  0.00034248 0.0328068 -0.0107204
v  0.00064248 0.0333697 -0.0103538
v  -0.00034248 0.031596 -0.00798159
v  -0.00064248 0.0322464 -0.00784305
v  0.00034248 0.031596 -0.00798159
v  0.00064248 0.0322464 -0.00784305
v  0.0135472 0.0408658 -0.0215977
v  0.0120142 0.0433702 -0.0238144
v  0.0103771 0.0439635 -0.0235551
v  -0.0135472 0.0280578 0.0238128
v  0.0103693 0.0426153 -0.0204881
v  0.0120478 0.0421557 -0.020786
v  -0.00064248 0.0322245 0.0191813
v  -0.00034248 0.031583 0.0190233
v  0.0120478 0.0328796 -0.0106642
v  0.0103829 0.0333697 -0.0103538
v  0.00064248 0.0322245 0.0191813
v  0.00034248 0.031583 0.0190233
v  0.0120478 0.0316197 -0.00798295
v  0.010388 0.0322464 -0.00784305
v  -0.0125289 0.0242878 0.0302756
v  -0.0120171 0.0296758 0.023645
v  -0.011977 0.021343 0.0336543
v  0.0135472 0.0301204 0.0186806
v  -0.010367 0.0302306 0.02379
v  -0.0108022 0.0254657 0.03107
v  -0.00913322 0.0260091 0.0312111
v  -0.0103645 0.0222011 0.0347942
v  0.0103759 0.0322245 0.0191813
v  0.0120478 0.0316197 0.0190418
v  -0.00867234 0.0225966 0.0351531
v  -0.00034248 0.0296267 0.0234774
v  -0.00064248 0.0302306 0.02379
v  0.00034248 0.0296267 0.0234774
v  0.00064248 0.0302306 0.02379
v  -0.00064248 0.0260091 0.0312111
v  -0.00034248 0.0254539 0.0308283
v  0.00064248 0.0260091 0.0312111
v  0.00034248 0.0254539 0.0308283
v  -0.00064248 0.0225966 0.0351531
v  -0.00034248 0.0221979 0.0346185
v  0.00064248 0.0225966 0.0351531
v  0.00034248 0.0221979 0.0346185
v  0.0135472 0.0280578 0.0238128
v  0.0125289 0.0242878 0.0302756
v  0.0120171 0.0296758 0.023645
v  0.010367 0.0302306 0.02379
v  0.011977 0.021343 0.0336543
v  0.00867234 0.0225966 0.0351531
v  0.0103645 0.0222011 0.0347942
v  0.00913322 0.0260091 0.0312111
v  0.0108022 0.0254657 0.03107
v  0.00210494 0.0296122 0.0248772
v  0.0009231 0.0282014 0.0273573
v  0.0009231 0.0331733 0.0302278
v  0.00210494 0.0345999 0.0277568
v  0.00210494 0.0267906 0.0298374
v  0.00210494 0.0317467 0.0326988
v  0.00495815 0.0301966 0.0238499
v  0.00495815 0.0351908 0.0267333
v  0.00495815 0.0262062 0.0308646
v  0.00495815 0.0311558 0.0337222
v  0.00781137 0.0296122 0.0248772
v  0.00781137 0.0345999 0.0277568
v  0.00781137 0.0267906 0.0298374
v  0.00781137 0.0317467 0.0326988
v  0.00899321 0.0282014 0.0273573
v  0.00899321 0.0331733 0.0302278
v  -0.00808815 0.0388767 -0.036965
v  -0.0116959 0.0403225 -0.0338597
v  0.00064248 0.0176101 -0.036965
v  0.012242 -0.0524307 0.0336021
v  0.0106491 -0.0533716 0.0347651
v  -0.00981911 0.0386771 -0.0364262
v  0.00894058 -0.0538228 0.0351239
v  0.012713 -0.0547832 0.0302143
v  -0.0114578 0.0382903 -0.0352054
v  -0.0123417 0.0177224 -0.0303546
v  -0.00813312 0.0176101 -0.0369517
v  -0.00064248 0.0176101 -0.036965
v  0.0135443 -0.0493693 -0.0238298
v  0.0111657 -0.0562849 0.0306873
v  0.0135436 -0.0547856 0.0243585
v  0.00951578 -0.0569565 0.0307767
v  -0.0114576 0.0176156 -0.0351922
v  -0.00982877 0.0176141 -0.036413
v  0.00034248 0.0176102 -0.0364262
v  0.00064248 -0.0538228 0.0351239
v  0.00034248 -0.0534154 0.0346115
v  -0.00034248 0.0176102 -0.0364262
v  -0.00064248 -0.0538228 0.0351239
v  -0.00034248 -0.0534154 0.0346115
v  0.0120478 -0.0565947 0.0242256
v  -0.013543 -0.0493432 -0.00642024
v  0.0135471 -0.0547856 0.0190418
v  0.0104937 -0.0573835 0.0241152
v  0.0126046 -0.0492084 -0.0289254
v  0.0120478 -0.0565947 0.0190418
v  0.00034248 -0.0563479 0.0305081
v  0.00064248 -0.0569565 0.0307767
v  -0.00034248 -0.0563479 0.0305081
v  -0.00064248 -0.0569565 0.0307767
v  0.0104879 -0.0573799 0.0190419
v  -0.00894058 -0.0538228 0.0351239
v  -0.0106491 -0.0533716 0.0347651
v  -0.012242 -0.0524307 0.0336021
v  0.0114567 -0.0490117 -0.03515
v  0.00034248 -0.0567034 0.0241156
v  0.00064248 -0.0573835 0.0241152
v  0.0135454 -0.0547856 -0.00629016
v  -0.00034248 -0.0567034 0.0241156
v  -0.00064248 -0.0573835 0.0241152
v  0.00985958 -0.0495197 -0.0363708
v  -0.012713 -0.0547832 0.0302143
v  -0.0111657 -0.0562849 0.0306873
v  -0.00951578 -0.0569565 0.0307767
v  0.0082755 -0.0497159 -0.0369096
v  0.010491 -0.0573817 -0.00635655
v  0.012046 -0.0565947 -0.00631
v  -0.0135436 -0.0547856 0.0243585
v  -0.0135443 -0.0493693 -0.0238298
v  0.00064248 -0.0497159 -0.036965
v  -0.0120478 -0.0565947 0.0242256
v  -0.0104937 -0.0573835 0.0241152
v  -0.0135471 -0.0547856 0.0190418
v  -0.0082755 -0.0497159 -0.0369096
v  -0.00064248 -0.0497159 -0.036965
v  -0.0126046 -0.0492084 -0.0289254
v  -0.0120478 -0.0565947 0.0190418
v  -0.0104879 -0.0573799 0.0190419
v  -0.0114567 -0.0490117 -0.03515
v  -0.00985958 -0.0495197 -0.0363708
v  0.0135441 -0.0547856 -0.0238307
v  0.00064248 -0.0573799 0.0190419
v  -0.0135454 -0.0547856 -0.00629016
v  -0.010491 -0.0573817 -0.00635655
v  -0.012046 -0.0565947 -0.00631
v  0.0120448 -0.0565947 -0.0236936
v  0.0104931 -0.057383 -0.0235518
v  0.00034248 -0.0566998 0.0190421
v  -0.00034248 -0.0566998 0.0190421
v  -0.00064248 -0.0573799 0.0190419
v  0.0126477 -0.0547654 -0.028807
v  0.0115936 -0.0565947 -0.0287137
v  0.011847 -0.0525441 -0.0330638
v  0.00994064 -0.057366 -0.0285447
v  0.0108668 -0.0540463 -0.0335908
v  0.00921345 -0.054728 -0.0336416
v  -0.0135441 -0.0547856 -0.0238307
v  -0.0120448 -0.0565947 -0.0236936
v  -0.0104931 -0.057383 -0.0235518
v  0.00064248 -0.0573817 -0.00677043
v  0.00064248 -0.057366 -0.0285447
v  0.00064248 -0.057383 -0.0235518
v  0.00034248 -0.0567029 -0.0235521
v  0.00034248 -0.0566912 -0.0284816
v  0.00064248 -0.054728 -0.0336416
v  -0.00064248 -0.057366 -0.0285447
v  -0.00034248 -0.0566912 -0.0284816
v  -0.00034248 -0.0567029 -0.0235521
v  -0.00064248 -0.057383 -0.0235518
v  0.00034248 -0.0541173 -0.0333833
v  0.00034248 -0.0495623 -0.0364262
v  -0.00034248 -0.0541173 -0.0333833
v  -0.00064248 -0.054728 -0.0336416
v  -0.00034248 -0.0495623 -0.0364262
v  0.00034248 -0.0567017 -0.00677047
v  -0.00034248 -0.0567017 -0.00677047
v  -0.00921345 -0.054728 -0.0336416
v  -0.0126477 -0.0547654 -0.028807
v  -0.00064248 -0.0573817 -0.00677043
v  -0.00994064 -0.057366 -0.0285447
v  -0.0115936 -0.0565947 -0.0287137
v  -0.011847 -0.0525441 -0.0330638
v  -0.0108668 -0.0540463 -0.0335908
v  0.00231386 0.0320683 0.0265377
v  0.00151402 0.0314623 0.0275938
v  0.00048696 0.0319443 0.0273884
v  0.00152534 0.0327315 0.0260176
v  0.00121856 0.0307523 0.0288312
v  0.00151402 0.0300423 0.0300686
v  0.0004869 0.0300996 0.0306005
v  0.00010335 0.0310219 0.0289944
v  0.00231386 0.0294363 0.0311248
v  0.00353155 0.0290383 0.0318186
v  0.00310608 0.0287952 0.0328718
v  0.00152525 0.0293123 0.0319713
v  0.00312617 0.0291663 0.0330305
v  0.00156247 0.0296783 0.03214
v  0.00495815 0.0286041 0.0332044
v  0.00495815 0.0289772 0.0333594
v  0.00053536 0.0304577 0.0307844
v  0.00015596 0.0313708 0.0291961
v  0.00053539 0.0322839 0.027608
v  0.00156252 0.0330632 0.0262523
v  0.00495815 0.0288912 0.0320749
v  0.00638476 0.0290383 0.0318186
v  0.00681023 0.0287952 0.0328718
v  0.00679014 0.0291663 0.0330305
v  0.00839106 0.0293123 0.0319713
v  0.00835384 0.0296783 0.03214
v  0.00760245 0.0294363 0.0311248
v  0.00840229 0.0300423 0.0300686
v  0.00942941 0.0300996 0.0306005
v  0.00938095 0.0304577 0.0307844
v  0.00981295 0.0310219 0.0289944
v  0.00976035 0.0313708 0.0291961
v  0.00869775 0.0307523 0.0288312
v  0.00840229 0.0314623 0.0275938
v  0.00942935 0.0319443 0.0273884
v  0.00938092 0.0322839 0.027608
v  0.00839097 0.0327315 0.0260176
v  0.0083538 0.0330632 0.0262523
v  0.00760245 0.0320683 0.0265377
v  0.00638476 0.0324664 0.0258439
v  0.00681017 0.0332486 0.0251171
v  0.00679011 0.0335752 0.0253619
v  0.00495815 0.0334396 0.0247846
v  0.00495815 0.0337643 0.025033
v  0.00495815 0.0326134 0.0255876
v  0.00353155 0.0324664 0.0258439
v  0.00310614 0.0332486 0.0251171
v  0.0031262 0.0335752 0.0253619
v  0.00096524 0.0323139 0.0316503
v  0.00062275 0.0331409 0.030218
v  0.00033429 0.0314848 0.0292619
v  0.00069962 0.0306057 0.0307912
v  0.00168859 0.0298554 0.0320965
v  0.0018925 0.0316081 0.0328729
v  0.00096532 0.0339678 0.0287857
v  0.00069962 0.0323639 0.0277326
v  0.00189262 0.0346736 0.0275631
v  0.00168859 0.0331143 0.0264273
v  0.00330421 0.0311444 0.033676
v  0.00319421 0.0293625 0.0329539
v  0.00495815 0.0291804 0.0332706
v  0.00495815 0.0309732 0.0339727
v  0.0066121 0.0311444 0.033676
v  0.00672209 0.0293625 0.0329539
v  0.00822771 0.0298554 0.0320965
v  0.00802381 0.0316081 0.0328729
v  0.00895107 0.0323139 0.0316503
v  0.00921668 0.0306057 0.0307912
v  0.009582 0.0314848 0.0292619
v  0.00929356 0.0331409 0.030218
v  0.00921668 0.0323639 0.0277326
v  0.00895098 0.0339678 0.0287857
v  0.00822771 0.0331143 0.0264273
v  0.00802369 0.0346736 0.0275631
v  0.0067221 0.0336072 0.0255699
v  0.00661201 0.0351372 0.0267601
v  0.00495815 0.0337892 0.0252532
v  0.00495815 0.0353084 0.0264635
v  0.00319421 0.0336072 0.0255699
v  0.00330429 0.0351372 0.0267601
v  0.00214167 0.0319979 0.0328102
v  0.00128977 0.0326464 0.031687
v  0.00128981 0.0341658 0.0290552
v  0.0009751 0.0334061 0.0303711
v  0.00495815 0.0314146 0.0338206
v  0.00343865 0.0315719 0.033548
v  0.00214174 0.0348143 0.027932
v  0.00343869 0.0352402 0.0271942
v  0.00495815 0.0353976 0.0269217
v  0.00647762 0.0352402 0.0271942
v  0.00777457 0.0348143 0.027932
v  0.00777463 0.0319979 0.0328102
v  0.00647766 0.0315719 0.033548
v  0.00862649 0.0341658 0.0290552
v  0.00894121 0.0334061 0.0303711
v  0.00862654 0.0326464 0.031687
v  0.00495815 0.0334061 0.0303711
v  -0.00229543 0.0425919 -0.0163756
v  -0.00129964 0.044361 -0.0198919
v  -0.00129964 0.0443833 -0.0216708
v  -0.00229543 0.0426093 -0.0177614
v  -0.00129964 0.0408564 -0.0155346
v  -0.00129964 0.0408726 -0.0168246
v  -0.00129964 0.0439973 0.00904759
v  -0.00229543 0.0422726 0.00902592
v  -0.00229543 0.0420211 0.0105444
v  -0.00129964 0.0436016 0.0114267
v  -0.00129964 0.040548 0.00900425
v  -0.00129964 0.0408995 0.00991825
v  -0.00229543 0.0411716 0.0113362
v  -0.00129964 0.0420942 0.0132888
v  -0.00129964 0.0405138 0.0102012
v  -0.00890414 0.040548 0.00900425
v  -0.0115034 0.040548 0.00900425
v  -0.0115034 0.0408726 -0.0168246
v  -0.00890414 0.0408726 -0.0168246
v  -0.00790835 0.0422726 0.00902592
v  -0.00790835 0.0426093 -0.0177614
v  -0.00890414 0.0439973 0.00904759
v  -0.00890414 0.0443833 -0.0216708
v  -0.0115034 0.0439973 0.00904759
v  -0.0115034 0.0443833 -0.0216708
v  -0.0124992 0.0422726 0.00902592
v  -0.0124992 0.0426306 -0.0194572
v  -0.00890414 0.0408995 0.00991825
v  -0.0115034 0.0408995 0.00991825
v  -0.00790835 0.0420211 0.0105444
v  -0.00890414 0.0436016 0.0114267
v  -0.0115034 0.0436016 0.0114267
v  -0.0124992 0.0420211 0.0105444
v  -0.00790835 0.0411716 0.0113362
v  -0.00890414 0.0405138 0.0102012
v  -0.00890414 0.0420942 0.0132888
v  -0.0115034 0.0420942 0.0132888
v  -0.0124992 0.0411716 0.0113362
v  -0.0115034 0.0405138 0.0102012
v  -0.0124992 0.0320304 0.0183945
v  -0.0109386 0.0320304 0.0183945
v  -0.0124992 0.0320809 0.0143788
v  -0.0124992 0.0321167 0.0115291
v  -0.0129475 0.0301352 0.0190313
v  -0.0114874 0.0319094 0.0192802
v  -0.0131579 0.0299379 0.0143226
v  -0.0128643 0.0298819 0.0111271
v  -0.00358099 0.0400651 0.011684
v  -0.00397931 0.0406823 0.0128413
v  -0.00358099 0.0410912 0.0138153
v  -0.00397931 0.0320304 0.0183945
v  -0.00229543 0.0320304 0.0183945
v  -0.00281091 0.0319055 0.0190792
v  -0.00445372 0.0319055 0.0190792
v  -0.00945081 0.0320304 0.0183945
v  -0.0103319 0.0318969 0.0193047
v  -0.00677488 0.0410912 0.0138153
v  -0.00633674 0.0406823 0.0128413
v  -0.00677488 0.0400651 0.011684
v  -0.0121251 0.0402092 -0.017204
v  -0.0096932 0.0403989 -0.0166154
v  -0.00969319 0.0442093 -0.023901
v  -0.0121251 0.0439073 -0.0235918
v  -0.0131747 0.0417364 -0.0200547
v  -0.00141481 0.0403989 -0.0166154
v  -0.00141481 0.0440819 -0.0239026
v  -0.00022686 0.0443692 -0.0206816
v  -0.00049964 0.0443806 -0.0216911
v  -0.00074279 0.0441903 -0.0239012
v  0.00229543 0.0320304 0.0183945
v  0.00098488 0.0320304 0.0183945
v  0.00098488 0.0319055 0.0190792
v  0.00281091 0.0319055 0.0190792
v  0.00129964 0.0436016 0.0114267
v  0.00129964 0.0420942 0.0132888
v  0.00129964 0.0439973 0.00904759
v  0.00129964 0.044361 -0.0198919
v  0.00022686 0.0443692 -0.0206816
v  0.00129964 0.0408726 -0.0168246
v  0.00129964 0.0408564 -0.0155346
v  0.00129964 0.0443833 -0.0216708
v  0.00229543 0.0425919 -0.0163756
v  0.00229543 0.0426093 -0.0177614
v  0.00129964 0.040548 0.00900425
v  0.00129964 0.0408995 0.00991825
v  0.00229543 0.0420211 0.0105444
v  0.00229543 0.0422726 0.00902592
v  0.00229543 0.0411716 0.0113362
v  0.00129964 0.0405138 0.0102012
v  0.0115034 0.0408726 -0.0168246
v  0.0115034 0.040548 0.00900425
v  0.00890414 0.040548 0.00900425
v  0.00890414 0.0408726 -0.0168246
v  0.00790835 0.0422726 0.00902592
v  0.00790835 0.0426093 -0.0177614
v  0.00890414 0.0439973 0.00904759
v  0.00890414 0.0443833 -0.0216708
v  0.0115034 0.0439973 0.00904759
v  0.0115034 0.0443833 -0.0216708
v  0.0124992 0.0422726 0.00902592
v  0.0124992 0.0426306 -0.0194572
v  0.00890414 0.0408995 0.00991825
v  0.0115034 0.0408995 0.00991825
v  0.00790835 0.0420211 0.0105444
v  0.00890414 0.0436016 0.0114267
v  0.0115034 0.0436016 0.0114267
v  0.0124992 0.0420211 0.0105444
v  0.00790835 0.0411716 0.0113362
v  0.00890414 0.0405138 0.0102012
v  0.00890414 0.0420942 0.0132888
v  0.0115034 0.0420942 0.0132888
v  0.0124992 0.0411716 0.0113362
v  0.0115034 0.0405138 0.0102012
v  0.0124992 0.0320304 0.0183945
v  0.0109386 0.0320304 0.0183945
v  0.0124992 0.0320809 0.0143788
v  0.0124992 0.0321167 0.0115291
v  0.0129475 0.0301352 0.0190313
v  0.0114874 0.0319094 0.0192802
v  0.0131579 0.0299379 0.0143226
v  0.0128643 0.0298819 0.0111271
v  0.00358099 0.0400651 0.011684
v  0.00397931 0.0406823 0.0128413
v  0.00358099 0.0410912 0.0138153
v  0.00397931 0.0320304 0.0183945
v  0.00445372 0.0319055 0.0190792
v  0.00945081 0.0320304 0.0183945
v  0.0103319 0.0318969 0.0193047
v  0.00677488 0.0410912 0.0138153
v  0.00633674 0.0406823 0.0128413
v  0.00677488 0.0400651 0.011684
v  0.00141481 0.0403989 -0.0166154
v  0.0121251 0.0402092 -0.017204
v  0.0096932 0.0403989 -0.0166154
v  0.00969319 0.0442093 -0.023901
v  0.0121251 0.0439073 -0.0235918
v  0.0131747 0.0417364 -0.0200547
v  0.00141481 0.0440819 -0.0239026
v  0.00049964 0.0443806 -0.0216911
v  0.00074279 0.0441903 -0.0239012
v  -0.00137503 0.0437002 -0.0242637
v  -0.00065499 0.0438129 -0.0242628
v  -0.00961938 0.0399348 -0.0168461
v  -0.012043 0.0397474 -0.0174778
v  -0.0121158 0.0434816 -0.0239558
v  -0.00968462 0.0438195 -0.0242593
v  -0.0131169 0.041277 -0.0203185
v  -0.00141481 0.0398934 -0.01677
v  0.00065499 0.0438129 -0.0242628
v  0.00137503 0.0437002 -0.0242637
v  0.012043 0.0397474 -0.0174778
v  0.00961938 0.0399348 -0.0168461
v  0.00968462 0.0438195 -0.0242593
v  0.0121158 0.0434816 -0.0239558
v  0.0131169 0.041277 -0.0203185
v  0.00141481 0.0398934 -0.01677
v  -0.00109077 0.0320304 0.0183945
v  -0.00031443 0.0347288 0.0170255
v  0.00031443 0.0347288 0.0170255
v  -0.00109077 0.0319055 0.0190792

# 835 UV coordinates
vt 0.75385 0.744233 0
vt 0.744791 0.744309 0
vt 0.742976 0.72276 0
vt 0.751925 0.721802 0
vt 0.677387 0.940368 0
vt 0.677463 0.597729 0
vt 0.686398 0.597117 0
vt 0.686346 0.94104 0
vt 0.010836 0.068235 0
vt 0 0.067612 0
vt 0.000445 0.028249 0
vt 0.010607 0.032158 0
vt 0.469691 0.314682 0
vt 0.129187 0.310625 0
vt 0.129442 0.284612 0
vt 0.470025 0.287789 0
vt 0.602066 0.001663 0
vt 0.600857 0.005097 0
vt 0.584371 0.003224 0
vt 0.584021 0 0
vt 0.868882 0.340584 0
vt 0.87787 0.34048 0
vt 0.879117 0.447913 0
vt 0.86995 0.446991 0
vt 0.131388 0.069817 0
vt 0.130124 0.149571 0
vt 0.068485 0.148071 0
vt 0.060861 0.131592 0
vt 0.665287 0.569828 0
vt 0.647348 0.572391 0
vt 0.647537 0.569153 0
vt 0.663908 0.566459 0
vt 0.737077 0.684939 0
vt 0.745841 0.684186 0
vt 0.379478 0.39727 0
vt 0.379507 0.386976 0
vt 0.486016 0.387109 0
vt 0.483668 0.397325 0
vt 0.015406 0.079417 0
vt 0.006015 0.08484 0
vt 0.99565 0.403402 0
vt 0.995686 0.38681 0
vt 0.999147 0.386818 0
vt 0.99911 0.40341 0
vt 0.618396 0.01676 0
vt 0.621041 0.014226 0
vt 0.051714 0.137438 0
vt 0.057798 0.150185 0
vt 0.745867 0.667624 0
vt 0.736946 0.667704 0
vt 0.380224 0.670575 0
vt 0.380192 0.696589 0
vt 0.039664 0.696903 0
vt 0.039626 0.670008 0
vt 0.794106 0.723445 0
vt 0.792662 0.746587 0
vt 0.946395 0.370501 0
vt 0.952304 0.026381 0
vt 0.955925 0.027121 0
vt 0.950011 0.369814 0
vt 0.680843 0.553933 0
vt 0.683611 0.556332 0
vt 0.936972 0.019784 0
vt 0.940548 0.020655 0
vt 0.92894 0.363201 0
vt 0.925286 0.363755 0
vt 0.040142 0.541427 0
vt 0.381026 0.535535 0
vt 0.73543 0.598259 0
vt 0.74431 0.598225 0
vt 0.468603 0.344625 0
vt 0.128816 0.343294 0
vt 0.735303 0.584204 0
vt 0.744309 0.583981 0
vt 0.52506 0.16392 0
vt 0.520693 0.148289 0
vt 0.529306 0.144417 0
vt 0.533878 0.161842 0
vt 0.380204 0.72926 0
vt 0.040424 0.726856 0
vt 0.501827 0.419443 0
vt 0.501201 0.455514 0
vt 0.380639 0.455771 0
vt 0.379935 0.422145 0
vt 0.069123 0.284804 0
vt 0.493817 0.404182 0
vt 0.501132 0.395857 0
vt 0.637261 0.048197 0
vt 0.640719 0.046907 0
vt 0.57102 0.150336 0
vt 0.565314 0.133034 0
vt 0.698112 0.521592 0
vt 0.70163 0.522708 0
vt 0.995733 0.365747 0
vt 0.999193 0.365755 0
vt 0.46783 0.369318 0
vt 0.128703 0.367794 0
vt 0.380048 0.75376 0
vt 0.040924 0.751556 0
vt 0.528415 0.185284 0
vt 0.537336 0.184089 0
vt 0.512031 0.415645 0
vt 0.875678 0.477446 0
vt 0.884639 0.476806 0
vt 0.883493 0.820726 0
vt 0.87456 0.820084 0
vt 0.639906 0.063654 0
vt 0.643616 0.063583 0
vt 0.381753 0.76449 0
vt 0.039302 0.762262 0
vt 0.795161 0.684564 0
vt 0.469335 0.380041 0
vt 0.12688 0.378505 0
vt 0.699981 0.506023 0
vt 0.70369 0.505908 0
vt 0.747554 0.447468 0
vt 0.73857 0.44769 0
vt 0.631274 0.132435 0
vt 0.634989 0.132348 0
vt 0.442677 0.534712 0
vt 0.450483 0.518318 0
vt 0.68792 0.437759 0
vt 0.691636 0.43766 0
vt 0.633836 0.147345 0
vt 0.637288 0.146053 0
vt 0.689734 0.422739 0
vt 0.693246 0.423857 0
vt 0.496508 0.466646 0
vt 0.531669 0.223424 0
vt 0.540362 0.222074 0
vt 0.577919 0.172474 0
vt 0.512043 0.45501 0
vt 0.794909 0.667349 0
vt 0.995814 0.329084 0
vt 0.999274 0.329092 0
vt 0.079632 0.310394 0
vt 0.726121 0.941466 0
vt 0.727274 0.59696 0
vt 0.793678 0.598197 0
vt 0.544321 0.238156 0
vt 0.535637 0.240197 0
vt 0.505839 0.472172 0
vt 0.793615 0.584567 0
vt 0.708466 0.26256 0
vt 0.704998 0.263747 0
vt 0.550662 0.308015 0
vt 0.559296 0.305939 0
vt 0.75851 0.303937 0
vt 0.754986 0.302925 0
vt 0.553879 0.3217 0
vt 0.56268 0.319777 0
vt 0.459565 0.524265 0
vt 0.453341 0.536944 0
vt 0.098377 0.343471 0
vt 0.995848 0.313403 0
vt 0.999309 0.313411 0
vt 0.516279 0.017599 0
vt 0.687905 0.314274 0
vt 0.68491 0.316006 0
vt 0.513283 0.019332 0
vt 0.05849 0.287071 0
vt 0.068414 0.311639 0
vt 0.996001 0.244083 0
vt 0.999462 0.24409 0
vt 0.58818 0.20999 0
vt 0.113182 0.360679 0
vt 0.440536 0.67143 0
vt 0.996035 0.228954 0
vt 0.999495 0.228962 0
vt 0.738699 0.421933 0
vt 0.747494 0.422459 0
vt 0.089599 0.350762 0
vt 0.753228 0.379562 0
vt 0.744373 0.378753 0
vt 0.10728 0.36986 0
vt 0.598315 0.451623 0
vt 0.589536 0.453545 0
vt 0.6846 0.962492 0
vt 0.675645 0.960835 0
vt 0.924416 0.476518 0
vt 0.924368 0.821026 0
vt 0.75481 0.353251 0
vt 0.745801 0.353591 0
vt 0.592024 0.226772 0
vt 0.607255 0.294235 0
vt 0.709224 0.287958 0
vt 0.712955 0.287529 0
vt 0.61043 0.307488 0
vt 0.757997 0.278533 0
vt 0.761744 0.278775 0
vt 0.716327 0.330531 0
vt 0.712599 0.330528 0
vt 0.762963 0.235658 0
vt 0.759239 0.235847 0
vt 0.95433 0.390718 0
vt 0.957448 0.388737 0
vt 0.94593 0 0
vt 0.948943 0.002138 0
vt 0.71367 0.356737 0
vt 0.710139 0.355651 0
vt 0.429747 0.696903 0
vt 0.758999 0.209617 0
vt 0.755526 0.210878 0
vt 0.796694 0.44808 0
vt 0.410639 0.729772 0
vt 0.595841 0.478577 0
vt 0.604255 0.475963 0
vt 0.451144 0.673813 0
vt 0.440951 0.698271 0
vt 0.395646 0.746816 0
vt 0.882967 0.455348 0
vt 0.874007 0.456974 0
vt 0.62009 0.516177 0
vt 0.611693 0.519105 0
vt 0.401447 0.756062 0
vt 0.996335 0.092524 0
vt 0.999796 0.092532 0
vt 0.419337 0.737159 0
vt 0.627997 0.541351 0
vt 0.619176 0.543205 0
vt 0.645877 0.439289 0
vt 0.796657 0.422379 0
vt 0.796038 0.378873 0
vt 0.99639 0.067947 0
vt 0.99985 0.067955 0
vt 0.725485 0.963371 0
vt 0.795402 0.352461 0
vt 0.996484 0.025244 0
vt 0.999944 0.025251 0
vt 0.506098 0 0
vt 0.503102 0.001733 0
vt 0.99654 0 0
vt 1 8e-06 0
vt 0.651955 0.464195 0
vt 0.124396 0.866846 0
vt 0.108854 0.865471 0
vt 0.111239 0.836565 0
vt 0.126789 0.837848 0
vt 0.923855 0.454611 0
vt 0.093312 0.864096 0
vt 0.09569 0.835282 0
vt 0.015546 0.857902 0
vt 0 0.856581 0
vt 0.002393 0.827583 0
vt 0.017942 0.828866 0
vt 0.667626 0.532386 0
vt 0.661885 0.506633 0
vt 0.077766 0.862775 0
vt 0.08014 0.833999 0
vt 0.031099 0.859147 0
vt 0.033492 0.83015 0
vt 0.062213 0.86153 0
vt 0.064591 0.832716 0
vt 0.046656 0.860339 0
vt 0.049041 0.831433 0
vt 0.618233 0.478987 0
vt 0.630859 0.469758 0
vt 0.640185 0.50952 0
vt 0.652859 0.500429 0
vt 0.753549 0.762246 0
vt 0.79123 0.764749 0
vt 0.011561 0.008581 0
vt 0.018784 0.016986 0
vt 0.915711 0.340121 0
vt 0.916732 0.447556 0
vt 0.023924 0.744075 0
vt 0.017528 0.7531 0
vt 0.744262 0.760531 0
vt 0.881545 0.844485 0
vt 0.872513 0.842547 0
vt 0.012208 0.72692 0
vt 0.026772 0 0
vt 0.029007 0.010241 0
vt 0.132462 0.0362 0
vt 0.812404 0.107903 0
vt 0.811294 0.000468 0
vt 0.848908 0 0
vt 0.850245 0.107432 0
vt 0.040893 0.453614 0
vt 0.001933 0.731369 0
vt 0.012018 0.697138 0
vt 0.809947 0.483065 0
vt 0.810778 0.45727 0
vt 0.819997 0.456396 0
vt 0.818855 0.483381 0
vt 0.133192 0.011332 0
vt 0.803416 0.107996 0
vt 0.802149 0.001591 0
vt 0.9651 0.138978 0
vt 0.963986 0.032445 0
vt 0.967092 0.031512 0
vt 0.968216 0.138946 0
vt 0.933035 0.386511 0
vt 0.936084 0.384526 0
vt 0.977623 0.825441 0
vt 0.978609 0.931976 0
vt 0.975148 0.932008 0
vt 0.974163 0.825473 0
vt 0.133276 0.001039 0
vt 0.961207 0.004051 0
vt 0.96415 0.006189 0
vt 7.6e-05 0.697218 0
vt 0.991958 0.833799 0
vt 0.988835 0.832924 0
vt 0.987941 0.726389 0
vt 0.991057 0.726363 0
vt 0.470923 0.159211 0
vt 0.011878 0.67023 0
vt 0.805667 0.51603 0
vt 0.81444 0.516759 0
vt 0.923769 0.845278 0
vt 0.041869 0.427479 0
vt 0 0.670299 0
vt 0.623415 0.877912 0
vt 0.626857 0.879232 0
vt 0.612562 0.902224 0
vt 0.610041 0.899601 0
vt 0.955929 0.52316 0
vt 0.942671 0.5014 0
vt 0.945206 0.49879 0
vt 0.959378 0.521858 0
vt 0.814679 0.542222 0
vt 0.805847 0.542259 0
vt 0.684533 0.573352 0
vt 0.675494 0.575259 0
vt 0.484912 0.362025 0
vt 0.491209 0.37112 0
vt 0.043074 0.395557 0
vt 0.624674 0.845592 0
vt 0.628429 0.845545 0
vt 0.699167 0.333741 0
vt 0.696172 0.335474 0
vt 0.012574 0.541873 0
vt 0.957017 0.555486 0
vt 0.960771 0.555553 0
vt 0.040374 0.385401 0
vt 0.496816 0.344999 0
vt 0.576716 0.466255 0
vt 0.567804 0.466427 0
vt 0.567097 0.439428 0
vt 0.5763 0.44045 0
vt 0.863378 0.481785 0
vt 0.861985 0.454614 0
vt 0.87392 0.000366 0
vt 0.865476 0.001437 0
vt 0.507042 0.349561 0
vt 0.815341 0.670407 0
vt 0.806531 0.6702 0
vt 0.497333 0.315221 0
vt 0.726759 0.572706 0
vt 0.471137 0.071395 0
vt 0.912482 0 0
vt 0.580465 0.499285 0
vt 0.571681 0.499872 0
vt 0.509274 0.315432 0
vt 0.986919 4.9e-05 0
vt 0.986556 0.025527 0
vt 0.983096 0.025478 0
vt 0.983459 0 0
vt 0.864286 0.515939 0
vt 0.49777 0.288316 0
vt 0.815919 0.448022 0
vt 0.854479 0.447541 0
vt 0.470448 0.04525 0
vt 0.509646 0.288516 0
vt 0.571033 0.525328 0
vt 0.579863 0.525507 0
vt 0.523312 0.464116 0
vt 0.525143 0.436971 0
vt 0.469594 0.013317 0
vt 0.807454 0.447137 0
vt 0.472406 0.003191 0
vt 0.013601 0.453223 0
vt 0.986096 0.057869 0
vt 0.982636 0.05782 0
vt 0.8645 0.541769 0
vt 0.498484 0.15996 0
vt 0.568309 0.653486 0
vt 0.577122 0.653421 0
vt 0.806434 0.757808 0
vt 0.815222 0.757015 0
vt 0.624353 0.819962 0
vt 0.628108 0.819916 0
vt 0.521855 0.49825 0
vt 0.985731 0.083498 0
vt 0.982271 0.083449 0
vt 0.960314 0.581179 0
vt 0.95656 0.581114 0
vt 0.000705 0.541669 0
vt 0.013776 0.4278 0
vt 0.003167 0.426958 0
vt 0.001716 0.453333 0
vt 0.025168 0.405971 0
vt 0.817881 0.781843 0
vt 0.808779 0.783486 0
vt 0.521226 0.524074 0
vt 0.016778 0.401553 0
vt 0.811405 0.811911 0
vt 0.820219 0.810435 0
vt 0.822556 0.84068 0
vt 0.814036 0.839305 0
vt 0.498432 0.071303 0
vt 0.575809 0.741019 0
vt 0.567035 0.740084 0
vt 0.86514 0.672401 0
vt 0.625187 0.579523 0
vt 0.625565 0.604745 0
vt 0.62181 0.604788 0
vt 0.62146 0.579886 0
vt 0.8611 0.843194 0
vt 0.863248 0.81269 0
vt 0.956119 0.821554 0
vt 0.952394 0.821171 0
vt 0.952876 0.796272 0
vt 0.956631 0.796335 0
vt 0.609231 0.554731 0
vt 0.61265 0.553379 0
vt 0.587539 0.537546 0
vt 0.588779 0.534584 0
vt 0.940032 0.846262 0
vt 0.943444 0.847631 0
vt 0.919474 0.866299 0
vt 0.918249 0.863331 0
vt 0.622812 0.689564 0
vt 0.626567 0.68952 0
vt 0.983874 0.213892 0
vt 0.980413 0.213843 0
vt 0.56118 0.793417 0
vt 0.558357 0.823621 0
vt 0.519777 0.825514 0
vt 0.51812 0.79498 0
vt 0.498537 0.045881 0
vt 0.954327 0.711502 0
vt 0.958082 0.711566 0
vt 0.96865 0.478321 0
vt 0.971774 0.479064 0
vt 0.974483 0.486095 0
vt 0.971022 0.486127 0
vt 0.563977 0.764867 0
vt 0.573052 0.766656 0
vt 0.509154 0.045155 0
vt 0.510315 0.071544 0
vt 0.988204 0.386239 0
vt 0.985095 0.38704 0
vt 0.487385 0.023928 0
vt 0.569969 0.795034 0
vt 0.566897 0.822383 0
vt 0.495823 0.019602 0
vt 0.518485 0.654678 0
vt 0.510354 0.159886 0
vt 0.865056 0.757547 0
vt 0.982666 0.298666 0
vt 0.979206 0.298616 0
vt 0.864667 0.783217 0
vt 0.517199 0.739815 0
vt 0.982311 0.323567 0
vt 0.978851 0.323518 0
vt 0.981913 0.351535 0
vt 0.978453 0.351486 0
vt 0.981519 0.379207 0
vt 0.978059 0.379157 0
vt 0.517175 0.765488 0
vt 0.615712 0.49437 0
vt 0.655354 0.484921 0
vt 0.646256 0.472168 0
vt 0.624813 0.506959 0
vt 0.518041 0.358548 0
vt 0.517829 0.349656 0
vt 0.523245 0.349395 0
vt 0.523961 0.358205 0
vt 0.517175 0.340689 0
vt 0.517608 0.331718 0
vt 0.523054 0.331768 0
vt 0.523167 0.340592 0
vt 0.517595 0.322811 0
vt 0.518455 0.31421 0
vt 0.524039 0.314106 0
vt 0.523576 0.322974 0
vt 0.52607 0.314158 0
vt 0.525585 0.323039 0
vt 0.52451 0.304855 0
vt 0.526696 0.304995 0
vt 0.525137 0.331801 0
vt 0.525198 0.34056 0
vt 0.525336 0.349311 0
vt 0.52598 0.358076 0
vt 0.636802 0.367067 0
vt 0.637274 0.359141 0
vt 0.64285 0.359499 0
vt 0.642897 0.36874 0
vt 0.64488 0.359525 0
vt 0.645091 0.368725 0
vt 0.642775 0.350614 0
vt 0.644786 0.350637 0
vt 0.636794 0.350514 0
vt 0.637194 0.341618 0
vt 0.642637 0.341806 0
vt 0.644721 0.341864 0
vt 0.643129 0.332996 0
vt 0.645154 0.333119 0
vt 0.637151 0.332633 0
vt 0.638212 0.3237 0
vt 0.643615 0.324202 0
vt 0.645702 0.324378 0
vt 0.644713 0.315434 0
vt 0.64673 0.31565 0
vt 0.638815 0.314822 0
vt 0.640287 0.306301 0
vt 0.645804 0.306618 0
vt 0.647847 0.306832 0
vt 0.646924 0.297442 0
vt 0.649127 0.297716 0
vt 0.519222 0.375057 0
vt 0.519121 0.367122 0
vt 0.524647 0.367057 0
vt 0.525351 0.376275 0
vt 0.526702 0.366938 0
vt 0.527565 0.376101 0
vt 0.518345 0.306258 0
vt 0.640748 0.298379 0
vt 0.536081 0.332014 0
vt 0.536072 0.340413 0
vt 0.5263 0.340548 0
vt 0.526249 0.331818 0
vt 0.526678 0.323081 0
vt 0.53634 0.32358 0
vt 0.536316 0.348828 0
vt 0.526447 0.349265 0
vt 0.536817 0.357228 0
vt 0.527071 0.358008 0
vt 0.536863 0.315154 0
vt 0.527163 0.314211 0
vt 0.527871 0.305244 0
vt 0.537952 0.306644 0
vt 0.655705 0.359016 0
vt 0.656411 0.36757 0
vt 0.646276 0.368524 0
vt 0.645973 0.359523 0
vt 0.64588 0.350642 0
vt 0.655556 0.350572 0
vt 0.65567 0.342133 0
vt 0.645833 0.341895 0
vt 0.646254 0.33318 0
vt 0.656045 0.333741 0
vt 0.646811 0.324473 0
vt 0.656617 0.325353 0
vt 0.647816 0.315767 0
vt 0.65751 0.316984 0
vt 0.648933 0.30696 0
vt 0.658626 0.30861 0
vt 0.65028 0.298052 0
vt 0.660324 0.300197 0
vt 0.538866 0.374128 0
vt 0.528732 0.375817 0
vt 0.527793 0.366859 0
vt 0.537551 0.365647 0
vt 0.538711 0.32372 0
vt 0.538388 0.332056 0
vt 0.538621 0.348717 0
vt 0.538455 0.34038 0
vt 0.540269 0.307419 0
vt 0.539163 0.315443 0
vt 0.539183 0.357024 0
vt 0.539843 0.365295 0
vt 0.541162 0.37329 0
vt 0.6609 0.309064 0
vt 0.659864 0.317295 0
vt 0.662579 0.301138 0
vt 0.657932 0.350536 0
vt 0.658015 0.358829 0
vt 0.658761 0.366899 0
vt 0.658917 0.325563 0
vt 0.658422 0.333877 0
vt 0.657978 0.342194 0
vt 0.736334 0.198126 0
vt 0.741353 0.204148 0
vt 0.723603 0.213628 0
vt 0.729451 0.194374 0
vt 0.743567 0.211668 0
vt 0.742858 0.219476 0
vt 0.739105 0.226359 0
vt 0.733083 0.231378 0
vt 0.721644 0.193664 0
vt 0.714123 0.195878 0
vt 0.708101 0.200897 0
vt 0.704349 0.20778 0
vt 0.725563 0.233592 0
vt 0.717755 0.232882 0
vt 0.703639 0.215587 0
vt 0.705853 0.223108 0
vt 0.710872 0.22913 0
vt 0.501639 0.689159 0
vt 0.502237 0.668611 0
vt 0.506878 0.660899 0
vt 0.505255 0.683146 0
vt 0.389965 0.828626 0
vt 0.393561 0.818261 0
vt 0.400547 0.817741 0
vt 0.396467 0.828143 0
vt 0.426739 0.793867 0
vt 0.435065 0.799431 0
vt 0.430309 0.806953 0
vt 0.42071 0.803395 0
vt 0.265325 0.827914 0
vt 0.266392 0.837881 0
vt 0.261602 0.837662 0
vt 0.257442 0.830543 0
vt 0.428783 0.81309 0
vt 0.415315 0.813945 0
vt 0.260131 0.83955 0
vt 0.25331 0.834838 0
vt 0.769954 0.01297 0
vt 0.783026 0.012793 0
vt 0.784657 0.143247 0
vt 0.771497 0.143399 0
vt 0.759931 0.012775 0
vt 0.761487 0.148359 0
vt 0.025737 0.778748 0
vt 0.027739 0.768934 0
vt 0.15946 0.802037 0
vt 0.176287 0.816687 0
vt 0.022527 0.791463 0
vt 0.173062 0.829459 0
vt 0.019652 0.801062 0
vt 0.15962 0.836476 0
vt 0.793043 0.012368 0
vt 0.794896 0.156545 0
vt 0.769321 0.008218 0
vt 0.78354 0.008122 0
vt 0.761868 0.004691 0
vt 0.014613 0.776197 0
vt 0.019074 0.766962 0
vt 0.011663 0.788473 0
vt 0.01106 0.798697 0
vt 0.790886 0.004372 0
vt 0.765791 0.000202 0
vt 0.771075 0.006589 0
vt 0.00372 0.77252 0
vt 0.013756 0.763631 0
vt 0 0.786383 0
vt 0.004743 0.799023 0
vt 0.781742 0.00654 0
vt 0.786843 0 0
vt 0.733163 0.145174 0
vt 0.732918 0.158348 0
vt 0.675693 0.16229 0
vt 0.676212 0.15434 0
vt 0.733972 0.170332 0
vt 0.686521 0.1796 0
vt 0.734793 0.178635 0
vt 0.6939 0.192017 0
vt 0.665736 0.165443 0
vt 0.671782 0.1566 0
vt 0.677084 0.185746 0
vt 0.685217 0.199669 0
vt 0.741567 0.110354 0
vt 0.749622 0.108091 0
vt 0.740941 0.118359 0
vt 0.734067 0.119373 0
vt 0.733037 0.104836 0
vt 0.728499 0.116974 0
vt 0.676962 0.11972 0
vt 0.676831 0.111392 0
vt 0.673364 0.113993 0
vt 0.673411 0.122019 0
vt 0.676481 0.14687 0
vt 0.671741 0.151076 0
vt 0.728616 0.133765 0
vt 0.734079 0.131162 0
vt 0.741202 0.132249 0
vt 0.741611 0.139729 0
vt 0.74969 0.141878 0
vt 0.303453 0.783067 0
vt 0.297761 0.804602 0
vt 0.269437 0.804419 0
vt 0.264924 0.782315 0
vt 0.303238 0.814439 0
vt 0.264507 0.814556 0
vt 0.31621 0.813355 0
vt 0.320897 0.815291 0
vt 0.307364 0.817011 0
vt 0.316138 0.78397 0
vt 0.308463 0.771907 0
vt 0.321982 0.775568 0
vt 0.321289 0.797916 0
vt 0.327812 0.797944 0
vt 0.265182 0.817172 0
vt 0.265792 0.770828 0
vt 0.499644 0.662384 0
vt 0.503465 0.658722 0
vt 0.260874 0.782104 0
vt 0.262349 0.770835 0
vt 0.676084 0.088638 0
vt 0.676308 0.095252 0
vt 0.672812 0.095388 0
vt 0.672453 0.086272 0
vt 0.409828 0.797 0
vt 0.403139 0.806352 0
vt 0.415509 0.787096 0
vt 0.490956 0.66181 0
vt 0.497674 0.661196 0
vt 0.39745 0.841262 0
vt 0.390949 0.84175 0
vt 0.495607 0.654103 0
vt 0.473069 0.671943 0
vt 0.476695 0.665937 0
vt 0.403027 0.850947 0
vt 0.396041 0.851467 0
vt 0.267346 0.850916 0
vt 0.262736 0.851832 0
vt 0.402291 0.790049 0
vt 0.406698 0.782338 0
vt 0.267783 0.860931 0
vt 0.259633 0.859475 0
vt 0.397556 0.794167 0
vt 0.261004 0.850178 0
vt 0.254928 0.855825 0
vt 0.494869 0.761593 0
vt 0.500872 0.891919 0
vt 0.487812 0.892508 0
vt 0.481722 0.762211 0
vt 0.477817 0.893289 0
vt 0.471438 0.757845 0
vt 0.043618 0.156898 0
vt 0.035609 0.292477 0
vt 0.025647 0.291438 0
vt 0.034702 0.136445 0
vt 0.012555 0.290679 0
vt 0.021551 0.135683 0
vt 0.002535 0.290537 0
vt 0.010819 0.146395 0
vt 0.504311 0.74772 0
vt 0.510897 0.891757 0
vt 0.487459 0.897288 0
vt 0.501659 0.896552 0
vt 0.480224 0.901245 0
vt 0.024736 0.302815 0
vt 0.034886 0.301335 0
vt 0.012142 0.30194 0
vt 0.002209 0.299442 0
vt 0.509212 0.899866 0
vt 0.484403 0.905497 0
vt 0.489305 0.898811 0
vt 0.024971 0.314309 0
vt 0.036464 0.307408 0
vt 0.01063 0.313691 0
vt 0 0.305369 0
vt 0.499956 0.898237 0
vt 0.505431 0.904467 0
vt 0.671565 0.037928 0
vt 0.728923 0.038064 0
vt 0.730041 0.051193 0
vt 0.67261 0.045826 0
vt 0.68122 0.019938 0
vt 0.72918 0.026037 0
vt 0.687759 0.007059 0
vt 0.729449 0.017698 0
vt 0.661421 0.035443 0
vt 0.66804 0.043866 0
vt 0.671396 0.014432 0
vt 0.678587 0 0
vt 0.739579 0.077433 0
vt 0.748921 0.087103 0
vt 0.740734 0.08538 0
vt 0.732653 0.076878 0
vt 0.732585 0.091451 0
vt 0.727256 0.07964 0
vt 0.67566 0.08032 0
vt 0.671965 0.078262 0
vt 0.673375 0.053262 0
vt 0.668366 0.04938 0
vt 0.726261 0.062878 0
vt 0.731884 0.065113 0
vt 0.738919 0.063556 0
vt 0.738831 0.056065 0
vt 0.74675 0.053385 0
vt 0.24519 0.805963 0
vt 0.217116 0.809723 0
vt 0.208748 0.78908 0
vt 0.246873 0.783466 0
vt 0.251361 0.815396 0
vt 0.212926 0.820173 0
vt 0.251023 0.818075 0
vt 0.195516 0.82325 0
vt 0.199921 0.820737 0
vt 0.209157 0.823246 0
vt 0.202369 0.778642 0
vt 0.19628 0.791579 0
vt 0.18942 0.783983 0
vt 0.192931 0.806064 0
vt 0.186464 0.806916 0
vt 0.244561 0.772181 0
vt 0.499126 0.656105 0
vt 0.247978 0.771752 0
vt 0.250864 0.782744 0
vt 0.588392 0.108832 0
vt 0.58638 0.110576 0
vt 0.584021 0.108073 0
vt 0.585877 0.106144 0
vt 0.532094 0.011453 0
vt 0.529756 0.01269 0
vt 0.524211 0.001289 0
vt 0.526633 0 0
vt 0.620666 0.15272 0
vt 0.61841 0.154429 0
vt 0.61092 0.144449 0
vt 0.613042 0.14282 0
vt 0.630988 0.172233 0
vt 0.628612 0.173499 0
vt 0.639199 0.187322 0
vt 0.636777 0.188612 0
vt 0.556487 0.044969 0
vt 0.554324 0.046536 0
vt 0.541802 0.001163 0
vt 0.544214 0 0
vt 0.545857 0.003021 0
vt 0.543574 0.004391 0
vt 0.598309 0.09892 0
vt 0.596329 0.10082 0
vt 0.587223 0.092 0
vt 0.589126 0.090163 0
vt 0.568193 0.0384 0
vt 0.570402 0.03689 0
vt 0.577553 0.047117 0
vt 0.575226 0.048728 0
vt 0.592498 0.06275 0
vt 0.590554 0.064614 0
vt 0.604315 0.075216 0
vt 0.602336 0.077116 0
vt 0.562712 0.058112 0
vt 0.564875 0.056545 0
vt 0.676632 0.105313 0
vt 0.691622 0.101076 0
vt 0.691529 0.097951 0
vt 0.673136 0.105406 0

# 595 vertex normals
vn -0.050761 0.760632 -0.647195
vn -0.477141 0.615045 -0.627739
vn -0.520499 0.820207 -0.237364
vn -0.052838 0.987005 -0.151757
vn -0.481771 0.020661 0.876054
vn -0.483543 -0.017535 0.875145
vn -0.049676 -0.025783 0.998433
vn -0.049375 0.025354 0.998458
vn -0.993471 0.049879 -0.102607
vn -0.552189 0.833545 0.017034
vn -0.977523 0.086561 -0.192241
vn -0.996852 0.000833 0.079277
vn -0.996846 0.000852 0.079351
vn -1 -6.8e-05 3.3e-05
vn -1 -4e-06 4.2e-05
vn 0.905146 0.321155 -0.278514
vn 0.905173 0.321579 -0.277938
vn 0.880089 0.034735 -0.473537
vn 0.880566 0.03764 -0.472426
vn 0.472761 -0.000293 -0.88119
vn 0.061345 -0.00029 -0.998117
vn 0.055273 0.078146 -0.995408
vn 0.454149 0.055551 -0.889192
vn -0.998434 -3e-05 -0.055942
vn -1 -5.6e-05 3.5e-05
vn -0.997041 0.076797 0.003541
vn -0.997448 0.05531 0.045148
vn -0.905146 0.321155 -0.278513
vn -0.880566 0.037639 -0.472426
vn -0.880089 0.034734 -0.473537
vn -0.905173 0.321579 -0.277937
vn -0.061076 0.988818 0.136044
vn 0.92653 -0.000132 -0.37622
vn 0.916204 0.015259 -0.400422
vn -0.996109 0.068415 0.055562
vn -0.533197 0.659064 0.530411
vn 0 0.074162 -0.997246
vn 0 0.759897 -0.650044
vn 0.910518 0.407493 -0.070039
vn 0.910519 0.407475 -0.070131
vn -0.560116 0.64112 0.524629
vn -0.572848 0.818891 0.035534
vn -0.048205 0.779154 0.624976
vn 1 -6.8e-05 3.3e-05
vn 0.996846 0.000852 0.079351
vn 0.996852 0.000833 0.079277
vn 1 -4e-06 4.2e-05
vn 0 0.987211 -0.159422
vn 0 0.756728 -0.653729
vn 0.908855 0.010312 0.416984
vn 0.908651 -0.010185 0.417431
vn 0.908645 -0.010075 0.417447
vn 0.908838 0.010085 0.417027
vn -0.910518 0.407493 -0.070039
vn -0.910519 0.407475 -0.070131
vn -0.908855 0.010312 0.416985
vn -0.908838 0.010085 0.417027
vn -0.908645 -0.010075 0.417448
vn -0.908651 -0.010185 0.417432
vn 1 -1e-05 3.8e-05
vn 1 -5.6e-05 3.5e-05
vn -0.051504 0.772186 0.633306
vn -0.989479 0.001964 0.144667
vn -0.989295 0.002275 0.145913
vn -0.056666 0.997634 0.038924
vn 0.477141 0.615045 -0.627739
vn 0.050761 0.760632 -0.647195
vn 0.989295 0.002275 0.145913
vn 0.989479 0.001964 0.144667
vn 0.977523 0.086561 -0.192241
vn 0.993471 0.049879 -0.102608
vn 0.998434 -3e-05 -0.055942
vn 0.983504 -1.5e-05 -0.180887
vn -0.992204 0.12439 0.007699
vn 0.964391 0.087765 -0.249493
vn 0.910605 0.409711 0.054175
vn 0.910601 0.40973 0.054094
vn 0.000774 0.077249 -0.997012
vn -0.910605 0.409711 0.054175
vn -0.910601 0.40973 0.054094
vn 0 0.986045 -0.166478
vn -0.933088 -0.002705 0.359638
vn -0.931628 0.008104 0.363322
vn 0.931628 0.008104 0.363322
vn 0.933088 -0.002705 0.359638
vn 0.520499 0.820207 -0.237364
vn 0.052838 0.987005 -0.151757
vn 0.481771 0.020661 0.876053
vn 0.049375 0.025354 0.998458
vn 0.049676 -0.025783 0.998433
vn 0.483543 -0.017535 0.875145
vn 0.911961 0.319472 0.25742
vn 0.911955 0.319354 0.257587
vn 0 0.990475 0.137694
vn -0.911961 0.319472 0.25742
vn -0.911955 0.319354 0.257587
vn -0.051883 0.996642 0.063342
vn -0.544736 0.836909 0.053348
vn 0.911881 0.318003 0.259514
vn 0.911879 0.31796 0.259575
vn 0.997041 0.076797 0.003541
vn 0.997448 0.05531 0.045148
vn -0.911881 0.318003 0.259514
vn -0.911879 0.31796 0.259575
vn 0.908448 0.417664 0.016721
vn 0.908446 0.417668 0.016705
vn -0.908448 0.417664 0.016721
vn -0.908446 0.417668 0.016705
vn 0.996109 0.068415 0.055562
vn 0.552189 0.833545 0.017034
vn 0.061076 0.988818 0.136044
vn 0 0.779913 0.625888
vn 0 0.991475 0.130296
vn -0.978538 0.151933 0.139212
vn 0 0.025044 0.999686
vn 0 -0.025751 0.999668
vn 0 0.773296 0.634045
vn 0.048205 0.779154 0.624976
vn 0.533197 0.659064 0.530411
vn 0 0.999249 0.038759
vn 0.909532 0.414737 0.027287
vn 0.909381 0.415185 0.025449
vn 0.560116 0.64112 0.524629
vn 0.051504 0.772186 0.633306
vn -0.909532 0.414737 0.027287
vn -0.909381 0.415185 0.025449
vn 0.572848 0.818891 0.035534
vn 0.056666 0.997634 0.038924
vn -0.949061 0.17332 0.263141
vn 0 0.777172 0.629289
vn 0 0.023672 0.99972
vn 0 -0.023439 0.999725
vn -0.517542 0.745911 0.419245
vn 0 0.776168 0.630526
vn -0.912947 0.189318 0.361507
vn 0.992204 0.12439 0.007699
vn 0 0.999155 0.041111
vn -0.05508 0.886557 0.459329
vn -0.481876 0.690523 0.53942
vn -0.047947 0.830991 0.554216
vn -0.47936 0.512794 0.712219
vn 0.051883 0.996642 0.063342
vn 0.544736 0.836909 0.053348
vn -0.048441 0.621404 0.781992
vn 0 0.779913 0.625889
vn 0.913262 0.361802 0.187222
vn 0.913279 0.36162 0.187491
vn -0.913262 0.361802 0.187222
vn -0.913279 0.36162 0.187491
vn 0.913392 0.338443 0.226211
vn 0.913377 0.338216 0.226611
vn -0.913392 0.338443 0.226211
vn -0.913377 0.338216 0.226611
vn 0.913058 0.252137 0.320548
vn 0.91306 0.252448 0.320298
vn -0.913058 0.252137 0.320548
vn -0.91306 0.252448 0.320298
vn 0.978538 0.151933 0.139212
vn 0 0.997979 0.063538
vn 0.949061 0.17332 0.263141
vn 0.517542 0.745911 0.419245
vn 0.103461 0.898501 0.426604
vn 0.912947 0.189318 0.361507
vn 0.048441 0.621404 0.781992
vn 0.479361 0.512794 0.712219
vn 0.106643 0.775417 0.622379
vn 0.481876 0.690523 0.53942
vn 0 0.998046 0.062477
vn 0 0.889202 0.457515
vn 0 0.83255 0.55395
vn 0 0.887509 0.46079
vn 0 0.619925 0.784661
vn 0 0.832001 0.554774
vn 0 0.620526 0.784186
vn 0 0.915556 0.40219
vn -0.705997 0.354107 -0.613332
vn -0.999997 0.001108 -0.00192
vn -1 0.000329 -0.000571
vn -0.706778 0.353717 -0.612657
vn -0.708214 -0.352998 0.611412
vn -0.707437 -0.353388 0.612087
vn -0 0.499999 -0.866026
vn 0 0.764097 0.645101
vn 0 -0.499999 0.866026
vn 0.705997 0.354107 -0.613332
vn 0.706778 0.353717 -0.612657
vn 0.708214 -0.352998 0.611412
vn 0.707437 -0.353388 0.612087
vn 0.999997 0.001108 -0.00192
vn 1 0.000329 -0.00057
vn 0 0.869206 0.49445
vn 0 0.869194 0.494472
vn 0 0.869208 0.494447
vn -1e-06 0.869205 0.494452
vn -0.055273 0.078146 -0.995408
vn -0.000774 0.077249 -0.997012
vn -0.964391 0.087765 -0.249493
vn 0.003672 -0.000309 -0.999993
vn 0.918848 -0.188769 0.346533
vn 0.500056 -0.517739 0.694183
vn -0.454149 0.055551 -0.889192
vn 0.05065 -0.64413 0.763237
vn 0.946361 -0.254821 0.198664
vn -0.916204 0.015259 -0.400421
vn -0.983504 -1.5e-05 -0.180887
vn -0.061345 -0.00029 -0.998117
vn -0.003672 -0.000309 -0.999993
vn 0.998915 1.7e-05 -0.046578
vn 0.560764 -0.76754 0.310526
vn 0.976881 -0.200092 0.075277
vn 0.057759 -0.956228 0.286866
vn -0.92653 -0.000132 -0.37622
vn -0.472762 -0.000293 -0.88119
vn -0.873711 0 -0.486446
vn -0.873711 0 -0.486445
vn -0.911896 -0.260833 0.316879
vn -0.911896 -0.260802 0.316903
vn 0 0 -1
vn 0.911896 -0.260833 0.316879
vn 0.911896 -0.260802 0.316903
vn 0.628112 -0.775531 0.063461
vn 0.873711 0 -0.486446
vn -1 -1e-05 3.8e-05
vn 0.979598 -0.200968 5e-05
vn 0.072235 -0.996634 0.038772
vn 0 -0.64032 0.768108
vn 0.983486 0.000112 -0.180983
vn 0.647491 -0.762073 -2.5e-05
vn -0.913243 -0.38953 0.119391
vn -0.913252 -0.386405 0.129081
vn 0.913243 -0.38953 0.119391
vn 0.913252 -0.386405 0.129081
vn 0.068425 -0.997656 -5.7e-05
vn -0.05065 -0.64413 0.763237
vn -0.500056 -0.517739 0.694183
vn -0.918848 -0.188769 0.346533
vn 0.924294 -0.005308 -0.381644
vn -0.911279 -0.411553 0.013949
vn -0.911396 -0.411309 0.013509
vn 0 -0.635713 0.771926
vn 0.979496 -0.201464 -1.4e-05
vn 0.911279 -0.411553 0.013949
vn 0.911396 -0.411309 0.013509
vn 0.459877 -0.029851 -0.887481
vn -0.946361 -0.254821 0.198664
vn -0.560764 -0.76754 0.310526
vn -0.057759 -0.956228 0.286866
vn 0 -0.955161 0.296086
vn 0.057791 -0.05047 -0.997052
vn 0.068419 -0.997657 6.9e-05
vn 0.647407 -0.762144 -1.2e-05
vn -0.976881 -0.200092 0.075277
vn -0.998915 1.7e-05 -0.046578
vn 0.004452 -0.048663 -0.998805
vn -0.628112 -0.775531 0.063461
vn -0.072235 -0.996634 0.038772
vn 0 -0.954271 0.298942
vn 0 -0.999379 0.035249
vn -0.979598 -0.200968 5e-05
vn -0.057792 -0.05047 -0.997052
vn -0.004452 -0.048663 -0.998805
vn -0.983486 0.000112 -0.180983
vn -0.647491 -0.762073 -2.6e-05
vn -0.068425 -0.997656 -5.7e-05
vn -0.924294 -0.005308 -0.381644
vn -0.459877 -0.029851 -0.887481
vn 0.980971 -0.190449 -0.037762
vn 0 -0.999529 0.030679
vn 0 -1 -5.6e-05
vn -0.979496 -0.201464 -1.4e-05
vn -0.068419 -0.997657 6.9e-05
vn -0.647407 -0.762144 -1.3e-05
vn 0.657643 -0.753105 -0.018432
vn 0.073394 -0.997301 -0.002194
vn -0.914932 -0.403608 -2.2e-05
vn 0 -0.999379 0.035248
vn 0 -1 -5.5e-05
vn 0.914932 -0.403608 -2.2e-05
vn 0.960049 -0.184051 -0.210785
vn 0.624173 -0.734962 -0.265027
vn 0.936261 -0.135234 -0.324234
vn 0.062539 -0.969407 -0.237358
vn 0.546881 -0.562011 -0.620537
vn 0.053882 -0.755042 -0.653458
vn -0.980971 -0.190449 -0.037762
vn -0.657642 -0.753105 -0.018432
vn -0.073394 -0.997301 -0.002194
vn 0 -1 7.2e-05
vn -0.915085 -0.392351 -0.093165
vn -0.914805 -0.403896 -0.000242
vn -0.914805 -0.403897 -0.000243
vn -0.914349 -0.38965 -0.110178
vn 0.001436 -0.747531 -0.664226
vn 0.915085 -0.392351 -0.093165
vn 0.914349 -0.38965 -0.110178
vn 0.914805 -0.403897 -0.000243
vn 0.914805 -0.403896 -0.000242
vn -0.895422 -0.317324 -0.31229
vn -0.901072 -0.337967 -0.271749
vn -0.876407 -0.021581 -0.481087
vn -0.876325 -0.02087 -0.481267
vn 0.895422 -0.317324 -0.31229
vn 0.901072 -0.337966 -0.271749
vn 0.876325 -0.02087 -0.481267
vn 0.876407 -0.021581 -0.481087
vn -0.914932 -0.403608 2.9e-05
vn -0.053882 -0.755042 -0.653458
vn -0.001436 -0.747531 -0.664226
vn -0.960049 -0.184051 -0.210785
vn 0.914932 -0.403608 2.9e-05
vn 0 -0.042384 -0.999101
vn -0.062539 -0.969407 -0.237358
vn -0.624173 -0.734962 -0.265027
vn -0.936261 -0.135235 -0.324234
vn -0.546881 -0.562011 -0.620537
vn 0 -1 -0.000697
vn 0 -1 -0.000481
vn 0 -0.969166 -0.246408
vn 0 -0.967112 -0.25435
vn 0 -0.744283 -0.667865
vn -3e-06 0.869206 0.49445
vn 1.1e-05 0.869206 0.49445
vn 0 0.869207 0.494449
vn 1e-06 0.869205 0.494452
vn -0.193589 -0.737566 -0.646931
vn -0.252875 -0.781845 -0.569889
vn -0.253022 -0.782027 -0.569573
vn -0.193818 -0.737683 -0.646729
vn -0.271889 -0.834455 -0.479333
vn -0.25097 -0.886302 -0.389209
vn -0.250818 -0.886481 -0.388899
vn -0.271885 -0.834684 -0.478937
vn -0.190925 -0.930013 -0.314043
vn -0.103399 -0.959212 -0.263101
vn -0.103251 -0.959242 -0.263048
vn -0.190697 -0.930126 -0.313849
vn -0.379774 -0.346162 0.857872
vn -0.355366 -0.106016 0.928696
vn -0.656815 -0.006334 0.754025
vn -0.701592 -0.23817 0.671598
vn -1e-06 -0.383594 0.923502
vn 0 -0.142057 0.989858
vn -0.857871 0.144668 0.493081
vn -0.916446 -0.077577 0.392567
vn -0.928798 0.32126 0.184731
vn -0.991586 0.11255 0.063952
vn -0.857785 0.499108 -0.122867
vn -0.915861 0.301821 -0.264768
vn -0.656702 0.64879 -0.384466
vn -0.70072 0.462825 -0.54294
vn 0 -0.969206 -0.246252
vn 0.103399 -0.959213 -0.263097
vn 0.103252 -0.959243 -0.263045
vn 0.379776 -0.346168 0.857868
vn 0.355368 -0.106007 0.928696
vn 0.701594 -0.238176 0.671593
vn 0.656815 -0.006321 0.754025
vn 0.190925 -0.930014 -0.314042
vn 0.250971 -0.886301 -0.389209
vn 0.250819 -0.88648 -0.3889
vn 0.190697 -0.930126 -0.313848
vn 0.916446 -0.07758 0.392566
vn 0.857866 0.144684 0.493085
vn 0.991586 0.11255 0.063949
vn 0.928792 0.321274 0.18474
vn 0.27189 -0.834455 -0.479333
vn 0.252877 -0.781844 -0.569888
vn 0.253024 -0.782027 -0.569572
vn 0.271885 -0.834684 -0.478938
vn 0.915862 0.301815 -0.264772
vn 0.85778 0.499118 -0.122859
vn 0.700721 0.462819 -0.542944
vn 0.6567 0.648797 -0.384458
vn 0.19359 -0.737566 -0.646931
vn 0.105304 -0.707031 -0.699299
vn 0.105456 -0.707063 -0.699244
vn 0.193819 -0.737683 -0.646729
vn 0.37919 0.569784 -0.729082
vn 0.355279 0.749687 -0.558343
vn -1e-06 0.607769 -0.794114
vn 0 0.784432 -0.620215
vn 1e-06 -0.697043 -0.71703
vn -0.105303 -0.707032 -0.699298
vn -0.105455 -0.707064 -0.699242
vn -0.379192 0.569787 -0.729079
vn -0.355281 0.749684 -0.558345
vn -0.892555 0.039221 0.449229
vn -0.966125 0.223641 0.128788
vn -0.972027 0.203746 0.116837
vn -0.898499 0.016754 0.438656
vn -0.687562 -0.139476 0.712605
vn -0.683178 -0.117398 0.720754
vn -0.89253 0.40833 -0.191458
vn -0.898186 0.388258 -0.206197
vn -0.68313 0.564657 -0.463137
vn -0.687092 0.546734 -0.478525
vn -0.369717 -0.221789 0.902285
vn -0.372264 -0.246094 0.894906
vn 0 -0.281711 0.959499
vn 1e-06 -0.258667 0.965967
vn 0.369717 -0.22179 0.902285
vn 0.372263 -0.246091 0.894908
vn 0.687561 -0.139473 0.712606
vn 0.683178 -0.117402 0.720753
vn 0.892556 0.039216 0.449227
vn 0.898499 0.016755 0.438656
vn 0.972027 0.203747 0.116838
vn 0.966127 0.223636 0.128786
vn 0.898186 0.38826 -0.206195
vn 0.892532 0.408326 -0.191461
vn 0.687092 0.546737 -0.478522
vn 0.683132 0.564654 -0.463138
vn 0.371949 0.650797 -0.661904
vn 0.369692 0.669316 -0.644472
vn -0 0.688738 -0.725011
vn 0 0.705904 -0.708308
vn -0.371949 0.650796 -0.661905
vn -0.369691 0.669318 -0.644471
vn -0.114647 0.797249 0.592664
vn -0.148086 0.824165 0.546647
vn -0.148101 0.885505 0.440395
vn -0.162153 0.854571 0.493371
vn 0 0.77351 0.633784
vn -0.061333 0.7808 0.621763
vn -0.11467 0.911902 0.394062
vn -0.061349 0.928886 0.36525
vn 0 0.935654 0.352919
vn 0.061349 0.928886 0.36525
vn 0.11467 0.911903 0.39406
vn 0.114648 0.797249 0.592664
vn 0.061334 0.7808 0.621764
vn 0.148101 0.885504 0.440396
vn 0.162153 0.854569 0.493374
vn 0.148086 0.824165 0.546647
vn 0 0.866029 0.499994
vn -0.975513 0.219923 0.002764
vn -0.220185 0.975381 0.01224
vn -0.018301 0.982698 0.184308
vn -0.128698 0.804703 0.579561
vn -0.490507 -0.871368 -0.010951
vn -0.226237 0.103676 0.968539
vn -0.412626 0.910646 0.021552
vn -0.999431 0.033438 0.004435
vn -0.96605 0.228032 0.121444
vn -0.35416 0.851337 0.387035
vn -0.43493 -0.900463 -0.001575
vn -0.611455 -0.790283 0.039693
vn -0.793097 0.568606 -0.218368
vn -0.105661 0.587803 0.802075
vn -0.792435 -0.031862 -0.609124
vn 0.435268 -0.900298 -0.002047
vn -0.443108 -0.896466 -0.002118
vn -0.578924 -0.815205 0.016976
vn 0.524038 -0.843088 0.12078
vn 0.999407 0.034184 0.004243
vn 0.846525 0.490053 0.207953
vn 0.412112 0.910891 0.021019
vn 0.107056 0.992436 0.060084
vn -0.419043 0.907726 0.020878
vn -0.275989 0.96111 0.009875
vn -0.99944 0.033216 0.004123
vn -0.937391 0.34717 0.027785
vn 0.611455 -0.790283 0.039693
vn -0.611456 -0.790283 0.039693
vn 0.96605 0.228032 0.121445
vn 0.354159 0.851337 0.387036
vn -0.354159 0.851337 0.387036
vn -0.96605 0.228033 0.121445
vn 0.816255 0.540295 -0.204473
vn 0.798161 -0.06877 -0.598506
vn 0.082628 0.557682 0.825932
vn -0.65595 0.412859 0.631884
vn -0.995611 0.088392 0.030757
vn -0.965811 -0.030019 -0.257502
vn -0.74112 0.381208 0.552649
vn -0.012767 0.485155 0.874335
vn -0.992082 0.122601 0.027251
vn -0.979682 0.058725 -0.191767
vn -0.947884 0.310753 0.070348
vn -0.340482 0.795682 0.500962
vn -0.967736 0.251739 -0.010686
vn -0.971483 0.232209 -0.047962
vn -0.349542 0.717875 -0.60206
vn -0.212073 0.895945 -0.390265
vn -0.0274 0.529656 0.84777
vn 0.001369 0.496825 0.86785
vn 0.002734 0.495313 0.86871
vn 0 0.98377 0.179433
vn 0.002219 0.986502 0.163736
vn -0.00129 0.530471 0.847702
vn 0.002857 0.988149 0.153474
vn 0.026278 0.522556 0.8522
vn 0.213576 0.896916 -0.387203
vn 0.371001 0.699297 -0.611018
vn -0.676164 0.143738 0.722594
vn -0.059512 -0.176096 0.982572
vn -0.015074 0.993244 -0.115061
vn -0.419039 0.907208 -0.037141
vn -0.824863 0.501066 0.261791
vn 0 0.403911 0.914798
vn 0.001621 0.994227 -0.107282
vn 0.001022 0.999938 0.011114
vn -0.035189 0.99832 -0.046037
vn -0.072542 0.991934 -0.10395
vn -0.002717 0.497129 0.867672
vn 0 0.98377 0.179436
vn 0 0.983769 0.179437
vn 0.35416 0.851337 0.387035
vn 0.1056 0.587729 0.802136
vn 0.412626 0.910646 0.021552
vn 0.220186 0.975381 0.01224
vn -0.001022 0.999938 0.011114
vn 0.226237 0.103676 0.968539
vn 0.490507 -0.871368 -0.010951
vn 0.018301 0.982698 0.184308
vn 0.975513 0.219923 0.002764
vn 0.128698 0.804703 0.579561
vn 0.43493 -0.900463 -0.001575
vn 0.96605 0.228032 0.121444
vn 0.999431 0.033438 0.004435
vn 0.793097 0.568606 -0.218369
vn 0.792435 -0.031862 -0.609124
vn 0.578924 -0.815205 0.016976
vn 0.443108 -0.896466 -0.002118
vn -0.435268 -0.900299 -0.002047
vn -0.524038 -0.843087 0.12078
vn -0.999407 0.034184 0.004243
vn -0.846525 0.490053 0.207953
vn -0.412112 0.910891 0.021019
vn -0.107056 0.992436 0.060084
vn 0.419043 0.907726 0.020878
vn 0.275989 0.96111 0.009875
vn 0.99944 0.033216 0.004123
vn 0.937391 0.34717 0.027785
vn -0.96605 0.228032 0.121445
vn -0.816255 0.540295 -0.204473
vn -0.798162 -0.068769 -0.598505
vn -0.082629 0.557682 0.825932
vn 0.65595 0.412859 0.631884
vn 0.995611 0.088392 0.030757
vn 0.965811 -0.030019 -0.257502
vn 0.74112 0.381208 0.552649
vn 0.012767 0.485155 0.874335
vn 0.992082 0.122601 0.027251
vn 0.979682 0.058725 -0.191767
vn 0.947884 0.310753 0.070348
vn 0.340482 0.795681 0.500962
vn 0.967736 0.251739 -0.010686
vn 0.971483 0.232209 -0.047962
vn 0.349542 0.717875 -0.60206
vn 0.212073 0.895946 -0.390264
vn 0.0274 0.529656 0.84777
vn -0.001368 0.496825 0.86785
vn -0.002219 0.986501 0.163739
vn 0.00129 0.530471 0.847702
vn -0.002857 0.988148 0.153477
vn -0.026278 0.522556 0.8522
vn -0.213576 0.896916 -0.387203
vn -0.371001 0.699297 -0.611017
vn 0.676164 0.143739 0.722594
vn 0.059512 -0.176096 0.982572
vn 0.015074 0.993244 -0.115061
vn 0.419038 0.907209 -0.037141
vn 0.824863 0.501066 0.261791
vn -0.001621 0.994227 -0.107282
vn 0.035189 0.99832 -0.046037
vn 0.072541 0.991933 -0.103951
vn 0.000517 0.682118 -0.731242
vn 0.001015 0.682128 -0.731232
vn -0.106188 0.676108 -0.72911
vn -0.044009 -0.399428 0.915708
vn -0.175716 -0.493622 0.85174
vn -0.178612 0.650196 -0.738473
vn -0.035445 0.676842 -0.735274
vn -0.034058 0.67703 -0.735167
vn -0.970563 0.085977 -0.224977
vn -0.941359 -0.26494 0.208926
vn -0.003871 -0.349874 0.936789
vn -0.003873 -0.349894 0.936781
vn 0.106188 0.676104 -0.729114
vn -0.001015 0.682128 -0.731232
vn -0.000518 0.682118 -0.731242
vn 0.175716 -0.493621 0.851741
vn 0.044008 -0.399428 0.915708
vn 0.034059 0.677031 -0.735166
vn 0.035446 0.676843 -0.735273
vn 0.178613 0.6502 -0.73847
vn 0.970563 0.085979 -0.224977
vn 0.970563 0.085978 -0.224977
vn 0.941359 -0.264942 0.208925
vn 0.003873 -0.349894 0.936781
vn 0.003871 -0.349874 0.936789
vn -1e-06 0.452438 0.891796
vn 0 0.452438 0.891796
vn 0 0.98377 0.179432

# Mesh 'can_low1_can_low1' with 974 faces
g can_low1_can_low1
usemtl can_low_polySurface1SG1
f  1/1/1 2/2/2 3/3/3
f  3/3/3 4/4/4 1/1/1
f  5/5/5 6/6/6 7/7/7
f  7/7/7 8/8/8 5/5/5
f  9/9/9 10/10/10 3/11/3
f  3/11/3 11/12/11 9/9/9
f  12/13/12 13/14/13 14/15/14
f  14/15/14 15/16/15 12/13/12
f  16/17/16 17/18/17 18/19/18
f  18/19/18 19/20/19 16/17/16
f  20/21/20 21/22/21 22/23/22
f  22/23/22 23/24/23 20/21/20
f  24/25/24 25/26/25 26/27/26
f  26/27/26 27/28/27 24/25/24
f  28/29/28 29/30/29 30/31/30
f  30/31/30 31/32/31 28/29/28
f  10/33/10 32/34/32 4/4/4
f  4/4/4 3/3/3 10/33/10
f  33/35/33 20/36/20 23/37/23
f  23/37/23 34/38/34 33/35/33
f  10/10/10 9/9/9 35/39/35
f  35/39/35 36/40/36 10/10/10
f  18/41/37 17/42/38 31/43/38
f  31/43/38 30/44/37 18/41/37
f  37/45/39 17/18/17 16/17/16
f  16/17/16 38/46/40 37/45/39
f  39/47/41 27/28/27 26/27/26
f  26/27/26 40/48/42 39/47/41
f  41/49/43 32/34/32 10/33/10
f  10/33/10 36/50/36 41/49/43
f  42/51/44 43/52/45 44/53/46
f  44/53/46 45/54/47 42/51/44
f  1/1/1 4/4/4 38/55/48
f  38/55/48 16/56/49 1/1/1
f  46/57/50 47/58/51 48/59/52
f  48/59/52 49/60/53 46/57/50
f  50/61/54 51/62/55 28/29/28
f  28/29/28 31/32/31 50/61/54
f  52/63/56 53/64/57 54/65/58
f  54/65/58 55/66/59 52/63/56
f  45/54/47 56/67/60 57/68/61
f  57/68/61 42/51/44 45/54/47
f  41/49/43 36/50/36 39/69/41
f  39/69/41 58/70/62 41/49/43
f  12/13/12 59/71/63 60/72/64
f  60/72/64 13/14/13 12/13/12
f  58/70/62 39/69/41 40/73/42
f  40/73/42 61/74/65 58/70/62
f  62/75/66 23/76/23 22/77/22
f  22/77/22 63/78/67 62/75/66
f  64/79/68 65/80/69 44/53/46
f  44/53/46 43/52/45 64/79/68
f  66/81/70 67/82/71 68/83/72
f  68/83/72 69/84/73 66/81/70
f  14/15/14 70/85/74 26/27/26
f  26/27/26 25/26/25 14/15/14
f  27/28/27 39/47/41 36/40/36
f  36/40/36 35/39/35 27/28/27
f  71/86/75 34/38/34 23/37/23
f  23/37/23 62/87/66 71/86/75
f  72/88/76 37/45/39 38/46/40
f  38/46/40 73/89/77 72/88/76
f  28/90/49 63/78/67 22/77/22
f  22/77/22 29/91/78 28/90/49
f  74/92/79 75/93/80 51/62/55
f  51/62/55 50/61/54 74/92/79
f  17/42/38 37/94/81 50/95/81
f  50/95/81 31/43/38 17/42/38
f  59/71/63 76/96/82 77/97/83
f  77/97/83 60/72/64 59/71/63
f  78/98/84 79/99/85 65/80/69
f  65/80/69 64/79/68 78/98/84
f  80/100/86 62/75/66 63/78/67
f  63/78/67 81/101/87 80/100/86
f  66/81/70 71/86/75 62/87/66
f  62/87/66 80/102/86 66/81/70
f  82/103/88 83/104/89 84/105/90
f  84/105/90 85/106/91 82/103/88
f  86/107/92 72/88/76 73/89/77
f  73/89/77 87/108/93 86/107/92
f  82/109/88 85/110/91 79/99/85
f  79/99/85 78/98/84 82/109/88
f  4/4/4 32/34/32 73/111/94
f  73/111/94 38/55/48 4/4/4
f  76/96/82 6/112/6 5/113/5
f  5/113/5 77/97/83 76/96/82
f  88/114/95 89/115/96 75/93/80
f  75/93/80 74/92/79 88/114/95
f  90/116/97 61/74/65 40/73/42
f  40/73/42 91/117/98 90/116/97
f  92/118/99 86/107/92 87/108/93
f  87/108/93 93/119/100 92/118/99
f  94/120/101 57/68/61 68/83/72
f  68/83/72 95/121/102 94/120/101
f  89/115/96 88/114/95 96/122/103
f  96/122/103 97/123/104 89/115/96
f  98/124/105 92/118/99 93/119/100
f  93/119/100 99/125/106 98/124/105
f  100/126/107 101/127/108 97/123/104
f  97/123/104 96/122/103 100/126/107
f  95/121/102 68/83/72 67/82/71
f  67/82/71 102/128/109 95/121/102
f  103/129/110 80/100/86 81/101/87
f  81/101/87 104/130/111 103/129/110
f  51/131/48 81/101/87 63/78/67
f  63/78/67 28/90/49 51/131/48
f  67/82/71 66/81/70 80/102/86
f  80/102/86 103/132/110 67/82/71
f  32/34/32 41/49/43 87/133/112
f  87/133/112 73/111/94 32/34/32
f  37/94/81 72/134/113 74/135/113
f  74/135/113 50/95/81 37/94/81
f  70/85/74 14/15/14 13/14/13
f  13/14/13 105/136/114 70/85/74
f  46/137/115 8/8/8 7/7/7
f  7/7/7 47/138/116 46/137/115
f  58/70/62 93/139/117 87/133/112
f  87/133/112 41/49/43 58/70/62
f  106/140/118 107/141/119 103/129/110
f  103/129/110 104/130/111 106/140/118
f  102/128/109 67/82/71 103/132/110
f  103/132/110 107/142/119 102/128/109
f  58/70/62 61/74/65 99/143/120
f  99/143/120 93/139/117 58/70/62
f  108/144/121 109/145/122 98/124/105
f  98/124/105 99/125/106 108/144/121
f  110/146/123 107/141/119 106/140/118
f  106/140/118 111/147/124 110/146/123
f  112/148/125 101/127/108 100/126/107
f  100/126/107 113/149/126 112/148/125
f  114/150/127 110/146/123 111/147/124
f  111/147/124 115/151/128 114/150/127
f  94/120/101 95/121/102 110/152/123
f  110/152/123 114/153/127 94/120/101
f  105/136/114 13/14/13 60/72/64
f  60/72/64 116/154/129 105/136/114
f  72/134/113 86/155/130 88/156/130
f  88/156/130 74/135/113 72/134/113
f  49/157/131 48/158/132 54/159/132
f  54/159/132 53/160/131 49/157/131
f  91/161/98 70/85/74 105/136/114
f  105/136/114 117/162/133 91/161/98
f  86/155/130 92/163/134 96/164/134
f  96/164/134 88/156/130 86/155/130
f  75/165/94 104/130/111 81/101/87
f  81/101/87 51/131/48 75/165/94
f  116/154/129 60/72/64 77/97/83
f  77/97/83 118/166/135 116/154/129
f  42/51/44 57/68/61 94/120/101
f  94/120/101 119/167/136 42/51/44
f  92/163/134 98/168/137 100/169/137
f  100/169/137 96/164/134 92/163/134
f  117/170/133 120/171/138 90/116/97
f  90/116/97 91/117/98 117/170/133
f  70/85/74 91/161/98 40/48/42
f  40/48/42 26/27/26 70/85/74
f  116/154/129 121/172/139 117/162/133
f  117/162/133 105/136/114 116/154/129
f  122/173/140 120/171/138 117/170/133
f  117/170/133 121/174/139 122/173/140
f  123/175/141 121/172/139 116/154/129
f  116/154/129 118/166/135 123/175/141
f  5/113/5 123/175/141 118/166/135
f  118/166/135 77/97/83 5/113/5
f  124/176/142 125/177/143 114/150/127
f  114/150/127 115/151/128 124/176/142
f  126/178/144 123/179/141 5/5/5
f  5/5/5 8/8/8 126/178/144
f  84/105/90 83/104/89 52/180/115
f  52/180/115 55/181/116 84/105/90
f  126/182/144 122/173/140 121/174/139
f  121/174/139 123/183/141 126/182/144
f  89/184/145 106/140/118 104/130/111
f  104/130/111 75/165/94 89/184/145
f  89/184/145 97/185/117 111/147/124
f  111/147/124 106/140/118 89/184/145
f  127/186/146 109/145/122 108/144/121
f  108/144/121 128/187/147 127/186/146
f  101/188/120 115/151/128 111/147/124
f  111/147/124 97/185/117 101/188/120
f  129/189/148 130/190/149 112/148/125
f  112/148/125 113/149/126 129/189/148
f  131/191/150 132/192/151 127/186/146
f  127/186/146 128/187/147 131/191/150
f  133/193/152 130/190/149 129/189/148
f  129/189/148 134/194/153 133/193/152
f  135/195/154 46/57/50 49/60/53
f  49/60/53 136/196/155 135/195/154
f  137/197/156 138/198/157 53/64/57
f  53/64/57 52/63/56 137/197/156
f  135/199/154 136/200/155 132/192/151
f  132/192/151 131/191/150 135/199/154
f  119/167/136 139/201/158 43/52/45
f  43/52/45 42/51/44 119/167/136
f  137/202/156 133/193/152 134/194/153
f  134/194/153 138/203/157 137/202/156
f  90/116/97 108/204/159 99/143/120
f  99/143/120 61/74/65 90/116/97
f  107/142/119 110/152/123 95/121/102
f  95/121/102 102/128/109 107/142/119
f  139/201/158 140/205/160 64/79/68
f  64/79/68 43/52/45 139/201/158
f  141/206/161 125/177/143 124/176/142
f  124/176/142 142/207/162 141/206/161
f  139/201/158 119/167/136 125/208/143
f  125/208/143 141/209/161 139/201/158
f  140/205/160 143/210/163 78/98/84
f  78/98/84 64/79/68 140/205/160
f  144/211/164 83/104/89 82/103/88
f  82/103/88 145/212/165 144/211/164
f  146/213/166 147/214/167 141/206/161
f  141/206/161 142/207/162 146/213/166
f  143/210/163 145/215/165 82/109/88
f  82/109/88 78/98/84 143/210/163
f  98/168/137 109/216/168 113/217/168
f  113/217/168 100/169/137 98/168/137
f  140/205/160 139/201/158 141/209/161
f  141/209/161 147/218/167 140/205/160
f  147/214/167 146/213/166 144/219/164
f  144/219/164 145/220/165 147/214/167
f  145/215/165 143/210/163 140/205/160
f  140/205/160 147/218/167 145/215/165
f  101/188/120 112/221/159 124/176/142
f  124/176/142 115/151/128 101/188/120
f  90/116/97 120/171/138 128/222/169
f  128/222/169 108/204/159 90/116/97
f  114/153/127 125/208/143 119/167/136
f  119/167/136 94/120/101 114/153/127
f  120/171/138 122/173/140 131/223/170
f  131/223/170 128/222/169 120/171/138
f  109/216/168 127/224/171 129/225/171
f  129/225/171 113/217/168 109/216/168
f  126/178/144 8/8/8 46/137/115
f  46/137/115 135/226/172 126/178/144
f  122/173/140 126/182/144 135/227/172
f  135/227/172 131/223/170 122/173/140
f  127/224/171 132/228/173 134/229/173
f  134/229/173 129/225/171 127/224/171
f  136/230/174 49/157/131 53/160/131
f  53/160/131 138/231/174 136/230/174
f  132/228/173 136/232/174 138/233/174
f  138/233/174 134/229/173 132/228/173
f  130/234/175 142/207/162 124/176/142
f  124/176/142 112/221/159 130/234/175
f  148/235/176 149/236/177 150/237/178
f  150/237/178 151/238/179 148/235/176
f  52/180/115 83/104/89 144/211/164
f  144/211/164 137/239/172 52/180/115
f  149/236/177 152/240/180 153/241/181
f  153/241/181 150/237/178 149/236/177
f  154/242/182 148/243/176 151/244/179
f  151/244/179 155/245/182 154/242/182
f  137/246/172 144/219/164 146/213/166
f  146/213/166 133/247/183 137/246/172
f  152/240/180 156/248/184 157/249/184
f  157/249/184 153/241/181 152/240/180
f  158/250/185 154/242/182 155/245/182
f  155/245/182 159/251/186 158/250/185
f  156/248/184 160/252/187 161/253/188
f  161/253/188 157/249/184 156/248/184
f  162/254/189 158/250/185 159/251/186
f  159/251/186 163/255/190 162/254/189
f  160/252/187 162/254/189 163/255/190
f  163/255/190 161/253/188 160/252/187
f  158/256/191 142/207/162 154/257/192
f  133/247/183 156/258/193 152/259/194
f  164/260/195 1/1/1 16/56/49
f  16/56/49 19/261/196 164/260/195
f  2/262/2 165/263/197 11/12/11
f  11/12/11 3/11/3 2/262/2
f  21/22/21 166/264/198 29/265/78
f  29/265/78 22/23/22 21/22/21
f  9/9/9 24/25/24 27/28/27
f  27/28/27 35/39/35 9/9/9
f  167/266/199 79/99/85 85/110/91
f  85/110/91 168/267/200 167/266/199
f  164/260/195 169/268/201 2/2/2
f  2/2/2 1/1/1 164/260/195
f  170/269/202 168/270/200 85/106/91
f  85/106/91 84/105/90 170/269/202
f  171/271/203 65/80/69 79/99/85
f  79/99/85 167/266/199 171/271/203
f  169/272/201 172/273/204 165/263/197
f  165/263/197 2/262/2 169/272/201
f  173/274/205 11/12/11 165/263/197
f  174/275/206 164/276/195 19/277/196
f  19/277/196 175/278/207 174/275/206
f  56/67/60 176/279/208 68/83/72
f  68/83/72 57/68/61 56/67/60
f  171/271/203 167/266/199 168/267/200
f  168/267/200 177/280/209 171/271/203
f  178/281/210 44/53/46 65/80/69
f  65/80/69 171/271/203 178/281/210
f  177/282/209 168/283/200 170/284/202
f  170/284/202 179/285/211 177/282/209
f  180/286/212 173/274/205 165/263/197
f  165/263/197 172/273/204 180/286/212
f  181/287/213 169/288/201 164/276/195
f  164/276/195 174/275/206 181/287/213
f  182/289/214 30/290/30 29/291/29
f  29/291/29 166/292/215 182/289/214
f  183/293/216 55/66/59 54/65/58
f  54/65/58 184/294/217 183/293/216
f  185/295/218 18/296/37 30/297/37
f  30/297/37 182/298/218 185/295/218
f  180/286/212 172/273/204 169/272/201
f  169/272/201 181/299/213 180/286/212
f  186/300/219 187/301/220 48/59/52
f  48/59/52 47/58/51 186/300/219
f  178/281/210 171/271/203 177/280/209
f  177/280/209 188/302/221 178/281/210
f  19/303/19 18/304/18 185/305/222
f  185/305/222 175/306/222 19/303/19
f  15/16/15 14/15/14 25/26/25
f  25/26/25 189/307/223 15/16/15
f  178/281/210 190/308/224 45/54/47
f  45/54/47 44/53/46 178/281/210
f  188/309/221 177/282/209 179/285/211
f  179/285/211 191/310/225 188/309/221
f  183/311/226 170/269/202 84/105/90
f  84/105/90 55/181/116 183/311/226
f  176/279/208 192/312/227 69/84/73
f  69/84/73 68/83/72 176/279/208
f  193/313/228 190/308/224 178/281/210
f  178/281/210 188/302/221 193/313/228
f  194/314/229 195/315/230 183/316/216
f  183/316/216 184/317/217 194/314/229
f  196/318/231 187/319/220 186/320/219
f  186/320/219 197/321/232 196/318/231
f  198/322/233 193/323/228 188/309/221
f  188/309/221 191/310/225 198/322/233
f  199/324/234 7/7/7 6/6/6
f  6/6/6 200/325/235 199/324/234
f  201/326/236 200/327/235 6/112/6
f  6/112/6 76/96/82 201/326/236
f  192/312/227 202/328/237 33/35/33
f  33/35/33 69/84/73 192/312/227
f  203/329/238 204/330/239 195/315/230
f  195/315/230 194/314/229 203/329/238
f  48/158/132 187/331/240 184/332/240
f  184/332/240 54/159/132 48/158/132
f  56/67/60 45/54/47 190/308/224
f  190/308/224 205/333/241 56/67/60
f  206/334/242 196/318/231 197/321/232
f  197/321/232 207/335/243 206/334/242
f  208/336/244 20/36/20 33/35/33
f  33/35/33 202/328/237 208/336/244
f  209/337/245 201/326/236 76/96/82
f  76/96/82 59/71/63 209/337/245
f  210/338/246 211/339/247 199/340/234
f  199/340/234 200/341/235 210/338/246
f  195/342/248 179/285/211 170/284/202
f  170/284/202 183/343/226 195/342/248
f  212/344/249 21/22/21 20/21/20
f  20/21/20 208/345/244 212/344/249
f  209/337/245 210/346/246 200/327/235
f  200/327/235 201/326/236 209/337/245
f  213/347/250 214/348/251 193/323/228
f  193/323/228 198/322/233 213/347/250
f  215/349/252 209/337/245 59/71/63
f  59/71/63 12/13/12 215/349/252
f  7/7/7 199/324/234 186/350/226
f  186/350/226 47/138/116 7/7/7
f  189/307/223 25/26/25 24/25/24
f  24/25/24 216/351/253 189/307/223
f  212/344/249 217/352/254 166/264/198
f  166/264/198 21/22/21 212/344/249
f  218/353/255 219/354/256 211/339/247
f  211/339/247 210/338/246 218/353/255
f  215/349/252 218/355/255 210/346/246
f  210/346/246 209/337/245 215/349/252
f  187/356/240 196/357/257 194/358/257
f  194/358/257 184/359/240 187/356/240
f  195/342/248 204/360/258 191/310/225
f  191/310/225 179/285/211 195/342/248
f  215/349/252 12/13/12 15/16/15
f  15/16/15 220/361/259 215/349/252
f  221/362/260 174/275/206 175/278/207
f  175/278/207 222/363/261 221/362/260
f  216/351/253 24/25/24 173/274/205
f  173/274/205 223/364/262 216/351/253
f  224/365/263 218/355/255 215/349/252
f  215/349/252 220/361/259 224/365/263
f  225/366/264 219/354/256 218/353/255
f  218/353/255 224/367/263 225/366/264
f  199/340/234 211/339/247 197/368/248
f  197/368/248 186/369/226 199/340/234
f  223/364/262 173/274/205 180/286/212
f  180/286/212 226/370/265 223/364/262
f  221/362/260 227/371/266 181/287/213
f  181/287/213 174/275/206 221/362/260
f  227/372/266 226/370/265 180/286/212
f  180/286/212 181/299/213 227/372/266
f  176/279/208 56/67/60 205/333/241
f  205/333/241 228/373/267 176/279/208
f  196/357/257 206/374/268 203/375/268
f  203/375/268 194/358/257 196/357/257
f  229/376/269 198/322/233 191/310/225
f  191/310/225 204/360/258 229/376/269
f  189/307/223 230/377/270 220/361/259
f  220/361/259 15/16/15 189/307/223
f  231/378/271 225/366/264 224/367/263
f  224/367/263 232/379/272 231/378/271
f  233/380/273 214/348/251 213/347/250
f  213/347/250 234/381/274 233/380/273
f  235/382/275 229/383/275 204/330/239
f  204/330/239 203/329/238 235/382/275
f  219/354/256 207/384/276 197/368/248
f  197/368/248 211/339/247 219/354/256
f  206/374/268 236/385/277 235/386/277
f  235/386/277 203/375/268 206/374/268
f  207/335/243 237/387/278 236/388/278
f  236/388/278 206/334/242 207/335/243
f  205/333/241 190/308/224 193/313/228
f  193/313/228 214/389/251 205/333/241
f  192/312/227 176/279/208 228/373/267
f  228/373/267 238/390/279 192/312/227
f  239/391/280 238/390/279 228/373/267
f  228/373/267 233/392/273 239/391/280
f  202/328/237 192/312/227 238/390/279
f  238/390/279 240/393/281 202/328/237
f  241/394/282 239/395/280 233/380/273
f  233/380/273 234/381/274 241/394/282
f  219/354/256 225/366/264 237/396/269
f  237/396/269 207/384/276 219/354/256
f  240/393/281 238/390/279 239/391/280
f  239/391/280 242/397/283 240/393/281
f  242/397/283 208/336/244 202/328/237
f  202/328/237 240/393/281 242/397/283
f  242/398/283 239/395/280 241/394/282
f  241/394/282 243/399/284 242/398/283
f  212/400/249 208/401/244 242/398/283
f  242/398/283 243/399/284 212/400/249
f  216/351/253 244/402/285 230/377/270
f  230/377/270 189/307/223 216/351/253
f  245/403/286 246/404/287 231/378/271
f  231/378/271 232/379/272 245/403/286
f  213/347/250 198/322/233 229/376/269
f  229/376/269 247/405/288 213/347/250
f  248/406/289 249/407/290 250/408/291
f  250/408/291 251/409/292 248/406/289
f  217/410/254 212/400/249 243/399/284
f  243/399/284 252/411/293 217/410/254
f  253/412/294 254/413/295 255/414/296
f  255/414/296 256/415/297 253/412/294
f  257/416/298 252/417/299 248/406/289
f  248/406/289 251/409/292 257/416/298
f  252/417/299 257/416/298 258/418/300
f  258/418/300 217/419/301 252/417/299
f  259/420/302 254/413/295 253/412/294
f  253/412/294 260/421/303 259/420/302
f  260/421/303 222/422/304 261/423/305
f  261/423/305 259/420/302 260/421/303
f  229/383/275 235/382/275 262/424/306
f  262/424/306 247/425/306 229/383/275
f  236/385/277 263/426/288 262/427/288
f  262/427/288 235/386/277 236/385/277
f  264/428/307 221/429/260 222/430/261
f  222/430/261 260/431/308 264/428/307
f  244/402/285 216/351/253 223/364/262
f  223/364/262 265/432/309 244/402/285
f  263/433/310 236/388/278 237/387/278
f  237/387/278 266/434/310 263/433/310
f  258/435/300 182/289/214 166/292/215
f  166/292/215 217/436/301 258/435/300
f  261/437/311 185/295/218 182/298/218
f  182/298/218 258/438/311 261/437/311
f  267/439/312 246/404/287 245/403/286
f  245/403/286 268/440/313 267/439/312
f  268/441/313 245/442/286 244/402/285
f  244/402/285 265/432/309 268/441/313
f  222/443/304 175/306/222 185/305/222
f  185/305/222 261/444/305 222/443/304
f  265/432/309 223/364/262 226/370/265
f  226/370/265 269/445/314 265/432/309
f  270/446/315 227/447/266 221/429/260
f  221/429/260 264/428/307 270/446/315
f  270/448/315 269/445/314 226/370/265
f  226/370/265 227/372/266 270/448/315
f  270/446/315 264/428/307 267/439/312
f  267/439/312 268/440/313 270/446/315
f  269/445/314 270/448/315 268/441/313
f  268/441/313 265/432/309 269/445/314
f  237/396/269 225/366/264 231/378/271
f  231/378/271 266/449/288 237/396/269
f  228/373/267 205/333/241 214/389/251
f  214/389/251 233/392/273 228/373/267
f  224/365/263 220/361/259 230/377/270
f  230/377/270 232/450/272 224/365/263
f  234/381/274 213/347/250 247/405/288
f  247/405/288 249/451/316 234/381/274
f  249/407/290 247/425/306 262/424/306
f  262/424/306 250/408/291 249/407/290
f  263/426/288 255/452/317 250/453/317
f  250/453/317 262/427/288 263/426/288
f  255/414/296 263/433/310 266/434/310
f  266/434/310 256/415/297 255/414/296
f  249/451/316 248/454/318 241/394/282
f  241/394/282 234/381/274 249/451/316
f  266/449/288 231/378/271 246/404/287
f  246/404/287 256/455/316 266/449/288
f  252/411/293 243/399/284 241/394/282
f  241/394/282 248/454/318 252/411/293
f  255/452/317 254/456/319 251/457/319
f  251/457/319 250/453/317 255/452/317
f  232/450/272 230/377/270 244/402/285
f  244/402/285 245/442/286 232/450/272
f  254/456/319 259/458/320 257/459/320
f  257/459/320 251/457/319 254/456/319
f  259/458/320 261/460/311 258/461/311
f  258/461/311 257/459/320 259/458/320
f  267/439/312 253/462/318 256/455/316
f  256/455/316 246/404/287 267/439/312
f  267/439/312 264/428/307 260/431/308
f  260/431/308 253/462/318 267/439/312
f  146/213/166 142/207/162 162/463/321
f  133/247/183 149/464/322 130/234/175
f  162/463/321 142/207/162 158/256/191
f  154/257/192 130/234/175 148/465/323
f  154/257/192 142/207/162 130/234/175
f  148/465/323 130/234/175 149/464/322
f  133/247/183 152/259/194 149/464/322
f  146/213/166 160/466/324 156/258/193
f  146/213/166 156/258/193 133/247/183
f  146/213/166 162/463/321 160/466/324
f  34/38/34 71/86/75 69/84/73
f  69/84/73 33/35/33 34/38/34
f  24/25/24 9/9/9 11/12/11
f  11/12/11 173/274/205 24/25/24
f  66/81/70 69/84/73 71/86/75
f  271/467/325 272/468/326 273/469/327
f  273/469/327 274/470/328 271/467/325
f  275/471/329 276/472/330 277/473/331
f  277/473/331 278/474/332 275/471/329
f  279/475/333 280/476/334 281/477/335
f  281/477/335 282/478/336 279/475/333
f  281/477/337 283/479/338 284/480/339
f  284/480/339 282/478/340 281/477/337
f  285/481/341 286/482/342 283/479/338
f  283/479/338 281/477/337 285/481/341
f  282/478/340 284/480/339 287/483/343
f  287/483/343 277/473/344 282/478/340
f  277/473/344 287/483/343 288/484/345
f  288/484/345 278/474/346 277/473/344
f  278/474/346 288/484/345 289/485/347
f  289/485/347 273/469/348 278/474/346
f  273/469/348 289/485/347 290/486/349
f  290/486/349 274/470/350 273/469/348
f  291/487/351 292/488/352 293/489/353
f  293/489/353 285/490/351 291/487/351
f  293/489/354 294/491/355 286/492/342
f  286/492/342 285/490/341 293/489/354
f  295/493/356 296/494/357 294/491/355
f  294/491/355 293/489/354 295/493/356
f  297/495/358 298/496/359 299/497/360
f  299/497/360 295/493/361 297/495/358
f  299/497/362 300/498/363 296/494/357
f  296/494/357 295/493/356 299/497/362
f  301/499/364 302/500/365 300/498/363
f  300/498/363 299/497/362 301/499/364
f  303/501/366 304/502/367 305/503/368
f  305/503/368 301/499/369 303/501/366
f  305/503/370 306/504/371 302/500/365
f  302/500/365 301/499/364 305/503/370
f  307/505/372 308/506/373 306/504/371
f  306/504/371 305/503/370 307/505/372
f  309/507/374 310/508/375 311/509/376
f  311/509/376 307/505/377 309/507/374
f  311/509/378 312/510/379 308/506/373
f  308/506/373 307/505/372 311/509/378
f  313/511/380 314/512/381 312/510/379
f  312/510/379 311/509/378 313/511/380
f  315/513/382 316/514/383 317/515/384
f  317/515/384 313/516/382 315/513/382
f  317/515/385 318/517/386 314/518/381
f  314/518/381 313/516/380 317/515/385
f  274/470/350 290/486/349 318/517/386
f  318/517/386 317/515/385 274/470/350
f  277/473/331 276/472/330 279/475/333
f  279/475/333 282/478/336 277/473/331
f  281/477/335 280/476/334 291/519/351
f  291/519/351 285/481/351 281/477/335
f  293/489/353 292/488/352 297/495/358
f  297/495/358 295/493/361 293/489/353
f  299/497/360 298/496/359 303/501/366
f  303/501/366 301/499/369 299/497/360
f  305/503/368 304/502/367 309/507/374
f  309/507/374 307/505/377 305/503/368
f  311/509/376 310/508/375 315/520/382
f  315/520/382 313/511/382 311/509/376
f  317/515/384 316/514/383 271/467/325
f  271/467/325 274/470/328 317/515/384
f  273/469/327 272/468/326 275/471/329
f  275/471/329 278/474/332 273/469/327
f  319/521/387 320/522/388 321/523/389
f  321/523/389 322/524/390 319/521/387
f  319/521/387 322/524/390 323/525/391
f  323/525/391 324/526/392 319/521/387
f  325/527/393 326/528/394 321/523/389
f  321/523/389 320/522/388 325/527/393
f  327/529/395 328/530/396 326/528/394
f  326/528/394 325/527/393 327/529/395
f  329/531/397 324/526/392 323/525/391
f  323/525/391 330/532/398 329/531/397
f  329/531/397 330/532/398 331/533/399
f  331/533/399 332/534/400 329/531/397
f  333/535/401 332/536/400 331/537/399
f  331/537/399 334/538/402 333/535/401
f  333/535/401 334/538/402 335/539/403
f  335/539/403 336/540/404 333/535/401
f  337/541/405 336/540/404 335/539/403
f  335/539/403 338/542/406 337/541/405
f  337/541/405 338/542/406 339/543/407
f  339/543/407 340/544/408 337/541/405
f  340/544/408 339/543/407 341/545/409
f  341/545/409 342/546/410 340/544/408
f  342/546/410 341/545/409 343/547/411
f  343/547/411 344/548/412 342/546/410
f  344/548/412 343/547/411 345/549/413
f  345/549/413 346/550/414 344/548/412
f  346/550/414 345/549/413 347/551/415
f  347/551/415 348/552/416 346/550/414
f  348/553/416 347/554/415 349/555/417
f  349/555/417 350/556/418 348/553/416
f  350/556/418 349/555/417 328/530/396
f  328/530/396 327/529/395 350/556/418
f  284/480/339 323/525/391 322/524/390
f  322/524/390 287/483/343 284/480/339
f  287/483/343 322/524/390 321/523/389
f  321/523/389 288/484/345 287/483/343
f  286/482/342 331/533/399 330/532/398
f  330/532/398 283/479/338 286/482/342
f  283/479/338 330/532/398 323/525/391
f  323/525/391 284/480/339 283/479/338
f  296/494/357 335/539/403 334/538/402
f  334/538/402 294/491/355 296/494/357
f  294/491/355 334/538/402 331/537/399
f  331/537/399 286/492/342 294/491/355
f  302/500/365 339/543/407 338/542/406
f  338/542/406 300/498/363 302/500/365
f  300/498/363 338/542/406 335/539/403
f  335/539/403 296/494/357 300/498/363
f  308/506/373 343/547/411 341/545/409
f  341/545/409 306/504/371 308/506/373
f  306/504/371 341/545/409 339/543/407
f  339/543/407 302/500/365 306/504/371
f  314/512/381 347/551/415 345/549/413
f  345/549/413 312/510/379 314/512/381
f  312/510/379 345/549/413 343/547/411
f  343/547/411 308/506/373 312/510/379
f  290/486/349 328/530/396 349/555/417
f  349/555/417 318/517/386 290/486/349
f  318/517/386 349/555/417 347/554/415
f  347/554/415 314/518/381 318/517/386
f  289/485/347 288/484/345 321/523/389
f  321/523/389 326/528/394 289/485/347
f  289/485/347 326/528/394 328/530/396
f  328/530/396 290/486/349 289/485/347
f  351/557/419 352/558/420 319/521/387
f  319/521/387 324/526/392 351/557/419
f  353/559/421 325/527/393 320/522/388
f  320/522/388 354/560/422 353/559/421
f  355/561/423 356/562/424 329/531/397
f  329/531/397 332/534/400 355/561/423
f  327/529/395 325/527/393 353/559/421
f  353/559/421 357/563/425 327/529/395
f  319/521/387 352/558/420 354/560/422
f  354/560/422 320/522/388 319/521/387
f  329/531/397 356/562/424 351/557/419
f  351/557/419 324/526/392 329/531/397
f  348/553/416 350/556/418 358/564/426
f  358/564/426 359/565/427 348/553/416
f  358/564/426 350/556/418 327/529/395
f  327/529/395 357/563/425 358/564/426
f  344/548/412 346/550/414 360/566/428
f  360/566/428 361/567/429 344/548/412
f  360/566/428 346/550/414 348/552/416
f  348/552/416 359/568/427 360/566/428
f  362/569/430 363/570/431 333/535/401
f  333/535/401 336/540/404 362/569/430
f  333/535/401 363/570/431 355/571/423
f  355/571/423 332/536/400 333/535/401
f  340/544/408 342/546/410 364/572/432
f  364/572/432 365/573/433 340/544/408
f  364/572/432 342/546/410 344/548/412
f  344/548/412 361/567/429 364/572/432
f  365/573/433 366/574/434 337/541/405
f  337/541/405 340/544/408 365/573/433
f  337/541/405 366/574/434 362/569/430
f  362/569/430 336/540/404 337/541/405
f  353/575/421 354/576/422 367/577/435
f  357/578/425 353/575/421 367/577/435
f  354/576/422 352/579/420 367/577/435
f  352/579/420 351/580/419 367/577/435
f  351/580/419 356/581/424 367/577/435
f  356/581/424 355/582/423 367/577/435
f  358/583/426 357/578/425 367/577/435
f  359/584/427 358/583/426 367/577/435
f  360/585/428 359/584/427 367/577/435
f  361/586/429 360/585/428 367/577/435
f  355/582/423 363/587/431 367/577/435
f  363/587/431 362/588/430 367/577/435
f  364/589/432 361/586/429 367/577/435
f  365/590/433 364/589/432 367/577/435
f  362/588/430 366/591/434 367/577/435
f  366/591/434 365/590/433 367/577/435
f  368/592/436 369/593/437 370/594/438
f  370/594/438 371/595/439 368/592/436
f  372/596/440 368/597/436 371/598/439
f  371/598/439 373/599/441 372/596/440
f  374/600/442 375/601/443 376/602/444
f  376/602/444 377/603/445 374/600/442
f  375/604/443 378/605/446 379/606/447
f  379/606/447 376/607/444 375/604/443
f  377/603/445 376/602/444 380/608/448
f  380/608/448 381/609/449 377/603/445
f  376/607/444 379/606/447 382/610/450
f  382/610/450 380/611/448 376/607/444
f  383/612/451 384/613/452 385/614/453
f  385/614/453 386/615/454 383/612/451
f  387/616/455 383/612/451 386/615/454
f  386/615/454 388/617/456 387/616/455
f  389/618/457 387/619/455 388/620/456
f  388/620/456 390/621/458 389/618/457
f  391/622/459 389/618/457 390/621/458
f  390/621/458 392/623/460 391/622/459
f  393/624/461 391/622/459 392/623/460
f  392/623/460 394/625/462 393/624/461
f  384/613/452 393/626/461 394/627/462
f  394/627/462 385/614/453 384/613/452
f  384/613/452 383/612/451 395/628/463
f  395/628/463 396/629/464 384/613/452
f  383/612/451 387/616/455 397/630/465
f  397/630/465 395/628/463 383/612/451
f  387/619/455 389/618/457 398/631/466
f  398/631/466 397/632/465 387/619/455
f  389/618/457 391/622/459 399/633/467
f  399/633/467 398/631/466 389/618/457
f  391/622/459 393/624/461 400/634/468
f  400/634/468 399/633/467 391/622/459
f  393/626/461 384/613/452 396/629/464
f  396/629/464 400/635/468 393/626/461
f  395/628/463 397/630/465 401/636/469
f  401/636/469 402/637/470 395/628/463
f  397/632/465 398/631/466 403/638/471
f  403/638/471 401/639/469 397/632/465
f  398/631/466 399/633/467 404/640/472
f  404/640/472 403/638/471 398/631/466
f  399/633/467 400/634/468 405/641/473
f  405/641/473 404/640/472 399/633/467
f  400/635/468 396/629/464 406/642/474
f  406/642/474 405/643/473 400/635/468
f  403/644/471 404/645/472 407/646/475
f  407/646/475 408/647/476 403/644/471
f  404/645/472 405/648/473 409/649/477
f  409/649/477 407/646/475 404/645/472
f  406/650/474 410/651/478 409/649/477
f  409/649/477 405/648/473 406/650/474
f  408/647/476 407/646/475 411/652/479
f  411/652/479 412/653/480 408/647/476
f  407/646/475 409/649/477 413/654/481
f  413/654/481 411/652/479 407/646/475
f  409/649/477 410/651/478 414/655/482
f  414/655/482 413/654/481 409/649/477
f  380/656/448 382/657/450 415/658/483
f  415/658/483 416/659/484 380/656/448
f  381/660/449 380/656/448 416/659/484
f  416/659/484 417/661/485 381/660/449
f  381/660/449 417/661/485 418/662/486
f  418/662/486 419/663/487 381/660/449
f  420/664/488 419/663/487 418/662/486
f  418/662/486 421/665/489 420/664/488
f  421/665/489 418/662/486 422/666/490
f  422/666/490 423/667/491 421/665/489
f  417/661/485 424/668/492 422/666/490
f  422/666/490 418/662/486 417/661/485
f  417/661/485 416/659/484 425/669/493
f  425/669/493 424/668/492 417/661/485
f  416/659/484 415/658/483 426/670/494
f  426/670/494 425/669/493 416/659/484
f  423/667/491 422/666/490 408/647/476
f  408/647/476 412/653/480 423/667/491
f  424/668/492 403/644/471 408/647/476
f  408/647/476 422/666/490 424/668/492
f  424/668/492 425/669/493 401/671/469
f  401/671/469 403/644/471 424/668/492
f  425/669/493 426/670/494 402/672/470
f  402/672/470 401/671/469 425/669/493
f  390/673/458 388/674/456 371/675/439
f  371/675/439 370/676/438 390/673/458
f  388/674/456 386/677/454 373/678/441
f  373/678/441 371/675/439 388/674/456
f  386/677/454 385/679/453 427/680/495
f  427/680/495 428/681/496 386/677/454
f  392/682/460 390/673/458 429/683/497
f  429/683/497 430/684/498 392/682/460
f  394/685/462 392/682/460 430/684/498
f  430/684/498 431/686/499 394/685/462
f  385/679/453 394/685/462 431/686/499
f  431/686/499 427/680/495 385/679/453
f  428/681/496 432/687/500 373/678/441
f  373/678/441 386/677/454 428/681/496
f  429/683/497 390/673/458 370/676/438
f  370/676/438 433/688/501 429/683/497
f  375/601/443 374/600/442 369/593/437
f  369/593/437 368/592/436 375/601/443
f  378/605/446 375/604/443 368/597/436
f  368/597/436 372/596/440 378/605/446
f  370/594/438 369/593/437 434/689/502
f  434/689/502 435/690/503 370/594/438
f  370/676/438 435/691/503 436/692/504
f  436/692/504 433/688/501 370/676/438
f  437/693/505 438/694/506 439/695/506
f  439/695/506 440/696/507 437/693/505
f  441/697/508 377/603/445 381/609/449
f  381/609/449 442/698/509 441/697/508
f  443/699/510 374/600/442 377/603/445
f  377/603/445 441/697/508 443/699/510
f  444/700/511 369/593/437 374/600/442
f  374/600/442 443/699/510 444/700/511
f  444/700/511 445/701/512 434/689/502
f  434/689/502 369/593/437 444/700/511
f  372/596/440 373/599/441 446/702/513
f  446/702/513 447/703/514 372/596/440
f  448/704/515 444/700/511 449/705/516
f  449/705/516 450/706/517 448/704/515
f  450/707/517 449/708/516 447/703/514
f  447/703/514 446/702/513 450/707/517
f  379/606/447 378/605/446 451/709/518
f  451/709/518 452/710/463 379/606/447
f  453/711/519 454/712/520 443/699/510
f  443/699/510 441/697/508 453/711/519
f  452/710/463 451/709/518 454/713/520
f  454/713/520 453/714/519 452/710/463
f  455/715/521 453/711/519 441/697/508
f  441/697/508 442/698/509 455/715/521
f  456/716/522 452/710/463 453/714/519
f  453/714/519 455/717/521 456/716/522
f  457/718/523 458/719/524 459/720/525
f  459/720/525 460/721/526 457/718/523
f  460/721/526 459/720/525 461/722/527
f  461/722/527 462/723/528 460/721/526
f  462/724/528 461/725/527 463/726/529
f  463/726/529 464/727/530 462/724/528
f  464/727/530 463/726/529 465/728/531
f  465/728/531 466/729/532 464/727/530
f  466/729/532 465/728/531 467/730/533
f  467/730/533 468/731/534 466/729/532
f  468/732/534 467/733/533 458/719/524
f  458/719/524 457/718/523 468/732/534
f  469/734/464 459/720/525 458/719/524
f  458/719/524 470/735/463 469/734/464
f  471/736/535 461/722/527 459/720/525
f  459/720/525 469/734/464 471/736/535
f  472/737/467 463/726/529 461/725/527
f  461/725/527 471/738/535 472/737/467
f  473/739/466 465/728/531 463/726/529
f  463/726/529 472/737/467 473/739/466
f  474/740/465 467/730/533 465/728/531
f  465/728/531 473/739/466 474/740/465
f  470/735/463 458/719/524 467/733/533
f  467/733/533 474/741/465 470/735/463
f  475/742/536 471/736/535 469/734/464
f  469/734/464 476/743/537 475/742/536
f  477/744/538 472/737/467 471/738/535
f  471/738/535 475/745/536 477/744/538
f  478/746/539 473/739/466 472/737/467
f  472/737/467 477/744/538 478/746/539
f  479/747/540 474/740/465 473/739/466
f  473/739/466 478/746/539 479/747/540
f  480/748/541 470/735/463 474/741/465
f  474/741/465 479/749/540 480/748/541
f  481/750/542 478/751/539 477/752/538
f  477/752/538 482/753/543 481/750/542
f  483/754/544 479/755/540 478/751/539
f  478/751/539 481/750/542 483/754/544
f  483/754/544 484/756/545 480/757/541
f  480/757/541 479/755/540 483/754/544
f  485/758/546 481/750/542 482/753/543
f  482/753/543 486/759/547 485/758/546
f  487/760/548 483/754/544 481/750/542
f  481/750/542 485/758/546 487/760/548
f  488/761/549 484/756/545 483/754/544
f  483/754/544 487/760/548 488/761/549
f  489/762/550 456/763/522 455/764/521
f  455/764/521 490/765/551 489/762/550
f  490/765/551 455/764/521 442/766/509
f  442/766/509 491/767/552 490/765/551
f  492/768/553 491/767/552 442/766/509
f  442/766/509 437/693/505 492/768/553
f  492/768/553 437/693/505 440/696/507
f  440/696/507 493/769/554 492/768/553
f  494/770/555 492/768/553 493/769/554
f  493/769/554 495/771/556 494/770/555
f  494/770/555 496/772/557 491/767/552
f  491/767/552 492/768/553 494/770/555
f  497/773/558 490/765/551 491/767/552
f  491/767/552 496/772/557 497/773/558
f  498/774/559 489/762/550 490/765/551
f  490/765/551 497/773/558 498/774/559
f  482/753/543 494/770/555 495/771/556
f  495/771/556 486/759/547 482/753/543
f  482/753/543 477/752/538 496/772/557
f  496/772/557 494/770/555 482/753/543
f  475/775/536 497/773/558 496/772/557
f  496/772/557 477/752/538 475/775/536
f  476/776/537 498/774/559 497/773/558
f  497/773/558 475/775/536 476/776/537
f  450/777/517 462/778/528 464/779/530
f  464/779/530 448/780/515 450/777/517
f  446/781/513 460/782/526 462/778/528
f  462/778/528 450/777/517 446/781/513
f  373/678/441 432/687/500 499/783/500
f  499/783/500 446/781/513 373/678/441
f  500/784/560 457/785/523 460/782/526
f  460/782/526 501/786/561 500/784/560
f  502/787/562 464/779/530 466/788/532
f  466/788/532 503/789/563 502/787/562
f  503/789/563 466/788/532 468/790/534
f  468/790/534 504/791/564 503/789/563
f  504/791/564 468/790/534 457/785/523
f  457/785/523 500/784/560 504/791/564
f  446/781/513 499/783/500 501/786/561
f  501/786/561 460/782/526 446/781/513
f  448/780/515 464/779/530 502/787/562
f  502/787/562 505/792/565 448/780/515
f  378/605/446 372/596/440 447/703/514
f  447/703/514 451/709/518 378/605/446
f  444/700/511 443/699/510 454/712/520
f  454/712/520 449/705/516 444/700/511
f  449/708/516 454/713/520 451/709/518
f  451/709/518 447/703/514 449/708/516
f  445/701/512 444/700/511 448/704/515
f  448/704/515 506/793/566 445/701/512
f  507/794/567 506/795/566 448/780/515
f  448/780/515 505/792/565 507/794/567
f  508/796/568 433/797/569 436/798/570
f  436/798/570 509/799/570 508/796/568
f  510/800/571 428/801/496 427/802/495
f  427/802/495 511/803/572 510/800/571
f  512/804/573 430/805/573 429/806/574
f  429/806/574 513/807/575 512/804/573
f  514/808/576 431/809/576 430/805/576
f  430/805/576 512/804/576 514/808/576
f  511/810/577 427/811/577 431/809/577
f  431/809/577 514/808/577 511/810/577
f  513/807/575 429/806/574 433/797/569
f  433/797/569 508/796/568 513/807/575
f  515/812/578 432/813/579 428/801/496
f  428/801/496 510/800/571 515/812/578
f  516/814/580 507/815/580 505/816/581
f  505/816/581 517/817/582 516/814/580
f  518/818/583 500/819/560 501/820/561
f  501/820/561 519/821/584 518/818/583
f  520/822/585 502/823/586 503/824/587
f  503/824/587 521/825/587 520/822/585
f  521/825/588 503/824/588 504/826/588
f  504/826/588 522/827/589 521/825/588
f  522/827/590 504/826/590 500/828/590
f  500/828/590 518/829/590 522/827/590
f  517/817/582 505/816/581 502/823/586
f  502/823/586 520/822/585 517/817/582
f  519/821/584 501/820/561 499/830/591
f  499/830/591 523/831/592 519/821/584
f  523/831/592 499/830/591 432/813/579
f  432/813/579 515/812/578 523/831/592
f  419/663/487 524/832/593 525/833/594
f  525/833/594 381/660/449 419/663/487
f  442/766/509 526/834/594 438/694/593
f  438/694/593 437/693/505 442/766/509
f  526/834/594 442/766/509 381/660/449
f  381/660/449 525/833/594 526/834/594
f  524/832/595 419/663/487 420/664/488
f  420/664/488 527/835/595 524/832/595

